<?xml version="1.0" encoding="UTF-8"?>
<svg id="svg549" xmlns="http://www.w3.org/2000/svg" version="1.1" xmlns:svg="http://www.w3.org/2000/svg" xmlns:xlink="http://www.w3.org/1999/xlink" viewBox="0 0 682.67 682.67">
  <!-- Generator: Adobe Illustrator 29.4.0, SVG Export Plug-In . SVG Version: 2.1.0 Build 152)  -->
  <defs>
    <style>
      .st0 {
        stroke-linecap: round;
        stroke-linejoin: round;
        stroke-width: 20px;
      }

      .st0, .st1 {
        fill: none;
        stroke: #fff;
      }

      .st1 {
        stroke-miterlimit: 10;
      }

      .st2 {
        clip-path: url(#clippath);
      }
    </style>
    <clipPath id="clippath">
      <rect class="st1" x="0" y="0" width="682.67" height="682.67"/>
    </clipPath>
  </defs>
  <g id="g555">
    <g id="g557">
      <g>
        <g class="st2">
          <g id="g559">
            <g id="g565">
              <path id="path567" class="st0" d="M10.73,320.44l68.37-173.32c2.11-5.35,8.16-7.98,13.51-5.87l54.41,21.46c5.35,2.11,7.98,8.16,5.87,13.51l-68.37,173.32c-2.11,5.35-8.16,7.98-13.51,5.87l-54.41-21.46c-5.35-2.11-7.98-8.16-5.87-13.51Z"/>
            </g>
            <g id="g569">
              <path id="path571" class="st0" d="M489.89,417.39l-35.59-27.43"/>
            </g>
            <g id="g573">
              <path id="path575" class="st0" d="M442.26,455.71l-31.64-24.36"/>
            </g>
            <g id="g577">
              <path id="path579" class="st0" d="M389.91,490.61l-22.55-17.45"/>
            </g>
            <g id="g581">
              <path id="path583" class="st0" d="M152.19,433.29h0c-11.14-9.44-12.51-26.12-3.07-37.26l24.72-29.01c9.44-11.14,26.13-12.51,37.26-3.07,11.14,9.44,12.51,26.12,3.07,37.26l-24.72,29.02c-9.44,11.14-26.12,12.51-37.26,3.07Z"/>
            </g>
            <g id="g585">
              <path id="path587" class="st0" d="M192.52,467.48h0c-11.14-9.44-12.51-26.12-3.07-37.26l24.72-29.01c9.44-11.14,26.12-12.51,37.26-3.07,11.14,9.44,12.51,26.12,3.07,37.26l-24.72,29.02c-9.44,11.14-26.12,12.51-37.26,3.07Z"/>
            </g>
            <g id="g589">
              <path id="path591" class="st0" d="M232.84,501.67h0c-11.14-9.44-12.51-26.12-3.07-37.26l24.72-29.02c9.44-11.13,26.12-12.51,37.26-3.07,11.13,9.44,12.51,26.12,3.07,37.26l-24.72,29.02c-9.44,11.14-26.12,12.51-37.26,3.07Z"/>
            </g>
            <g id="g593">
              <path id="path595" class="st0" d="M273.17,535.87h0c-11.14-9.44-12.51-26.12-3.07-37.26l24.72-29.01c9.44-11.14,26.13-12.51,37.26-3.07,11.14,9.44,12.51,26.12,3.07,37.26l-24.72,29.02c-9.44,11.14-26.12,12.51-37.26,3.07Z"/>
            </g>
            <g id="g597">
              <path id="path599" class="st0" d="M534.24,375.57l-13.3-9.81-62.53-46.15-7.17-5.04c-59.03,10.03-98.61-22.32-114.72-39.14-4.74-4.95-12.56-5.14-17.66-.56-55.36,49.72-87.41,36.97-102.98,22.18-7.48-7.11-6.2-19.37,2.49-24.95,29.75-19.1,57.54-43.27,77.39-62.11l-3.53-1.32c-12.57-4.71-25.77-7.49-39.17-8.24l-36.61-2.06c-4.79-.27-9.6-.33-14.4-.02-8.64.56-17.32-.89-25.34-4.25l-26.51-11.09-65.01,164.77,51.39,32.41,16.26,11.43,20.98-24.62c9.44-11.14,26.12-12.51,37.26-3.07,11.14,9.44,12.51,26.12,3.07,37.26,9.44-11.14,26.12-12.51,37.26-3.07,11.14,9.44,12.51,26.12,3.07,37.26,9.44-11.14,26.12-12.51,37.26-3.07,11.14,9.44,12.51,26.12,3.07,37.26,9.44-11.13,26.12-12.51,37.26-3.07,11.14,9.44,12.51,26.13,3.07,37.26l-10.03,11.77,22.07,16.29c12.26,9.05,29.53,8.01,40.05-3.01,10.24-10.72,10.85-26.85,2.67-38.22l11.07,8.17c12.62,9.31,30.5,7.89,40.87-3.88,10.05-11.4,9.79-28.12.41-39.19l6.22,4.59c12.03,8.88,28.95,8.08,39.54-2.49,11.26-11.23,11.55-28.83,1.87-40.42l9.33,6.89c13.05,9.63,31.42,7.16,41.45-5.67,10.47-13.39,7.25-32.94-6.43-43.03Z"/>
            </g>
            <g id="g601">
              <path id="path603" class="st0" d="M384.65,189l-37.96-6.02c-12.84-2.04-25.89,2.22-35.03,11.46-18.83,19.05-54.38,52.7-93.27,77.66-8.69,5.58-9.98,17.83-2.49,24.95,15.56,14.79,47.62,27.53,102.98-22.19,5.1-4.58,12.92-4.39,17.66.56,16.14,16.85,55.81,49.28,115,39.1l88.99,65.68,55.62-35.73-63.52-161.01-38.61,14.25c-10.71,3.95-22.25,5.09-33.52,3.3l-29.48-4.67"/>
            </g>
            <g id="g605">
              <path id="path607" class="st0" d="M629.92,213.94l-26.36-66.82c-2.11-5.35-8.16-7.98-13.51-5.87l-54.41,21.46c-5.35,2.11-7.98,8.16-5.87,13.51l68.37,173.32c2.11,5.35,8.16,7.98,13.51,5.87l54.41-21.46c5.35-2.11,7.98-8.16,5.87-13.51l-24.87-63.03"/>
            </g>
          </g>
        </g>
        <rect class="st1" x="0" y="0" width="682.67" height="682.67"/>
      </g>
    </g>
  </g>
</svg>