<?xml version="1.0" encoding="UTF-8"?>
<svg id="Capa_1" xmlns="http://www.w3.org/2000/svg" version="1.1" viewBox="0 0 512 512">
  <!-- Generator: Adobe Illustrator 29.4.0, SVG Export Plug-In . SVG Version: 2.1.0 Build 152)  -->
  <defs>
    <style>
      .st0 {
        fill: #fff;
      }
    </style>
  </defs>
  <path class="st0" d="M196.07,263.95c2.63,0,5.07-1.38,6.43-3.63l13.53-22.48,17.93,28.49c1.4,2.23,3.85,3.55,6.51,3.5,2.63-.05,5.04-1.49,6.35-3.77l28.87-50.44,38.77,70.65c1.29,2.36,3.75,3.84,6.44,3.89.04,0,.09,0,.13,0,2.64,0,5.09-1.39,6.44-3.66l24.15-40.55h58.24c4.14,0,7.5-3.36,7.5-7.5s-3.36-7.5-7.5-7.5h-62.5c-2.64,0-5.09,1.39-6.44,3.66l-19.62,32.94-38.9-70.89c-1.31-2.38-3.79-3.87-6.51-3.89h-.07c-2.69,0-5.17,1.44-6.51,3.77l-29.31,51.21-17.77-28.23c-1.37-2.18-3.77-3.51-6.35-3.51h-.07c-2.6.02-5.01,1.4-6.35,3.63l-17.63,29.28h-42.62c-4.14,0-7.5,3.36-7.5,7.5s3.36,7.5,7.5,7.5h46.86Z"/>
  <path class="st0" d="M423.1,55.79c-4.14,0-7.5,3.36-7.5,7.5v22.12h-22.12c-4.14,0-7.5,3.36-7.5,7.5s3.36,7.5,7.5,7.5h22.12v22.12c0,4.14,3.36,7.5,7.5,7.5s7.5-3.36,7.5-7.5v-22.12h22.12c4.14,0,7.5-3.36,7.5-7.5s-3.36-7.5-7.5-7.5h-22.12v-22.12c0-4.14-3.36-7.5-7.5-7.5Z"/>
  <path class="st0" d="M449.56,312.76c36.54-39.06,47.01-98.13,26.93-148.77,21.55-16.24,35.51-42.06,35.51-71.07,0-49.03-39.88-88.91-88.9-88.91-20.14,0-39.86,6.91-55.53,19.46-3.23,2.59-3.76,7.31-1.17,10.54,2.59,3.23,7.31,3.76,10.54,1.17,13.21-10.58,29.17-16.17,46.15-16.17,40.75,0,73.9,33.16,73.9,73.91s-33.15,73.94-73.9,73.94c-37.94,0-69.29-28.74-73.45-65.59,0-.08-.02-.17-.03-.26-.29-2.66-.45-5.36-.45-8.09,0-11.58,2.6-22.65,7.73-32.9,1.85-3.71.35-8.21-3.35-10.06-3.71-1.85-8.21-.35-10.06,3.35-6.18,12.36-9.31,25.69-9.31,39.61,0,1.26.03,2.51.08,3.76-18.94,6.77-36.61,17.9-51.43,32.47l-8.29,8.15s-.07-.07-.11-.11l-8.15-8.03c-26.37-26-60.89-40.53-94.72-39.83-28.15.58-53.06,11.61-72.03,31.89-2.83,3.03-2.67,7.78.36,10.61,3.03,2.82,7.77,2.67,10.6-.36,16.14-17.26,37.36-26.65,61.38-27.14,29.8-.61,60.37,12.34,83.88,35.51l8.16,8.04c3.94,3.88,7.3,5.81,10.65,5.81s6.63-1.9,10.5-5.7l8.29-8.15c12.46-12.24,27.15-21.78,42.88-27.89,8.74,39.93,44.37,69.91,86.88,69.91,14.55,0,28.3-3.52,40.44-9.74,16.62,44.7,7.08,96.13-24.87,130.34l-107.67,110.21-8.91,1.74c-2.16.42-4.07.8-5.81,1.15-11.3,2.29-14,2.83-27.23.79l-64.15-11.73c-8.74-3.02-7.86-9.98-7.37-12.07.77-3.25,3.79-8.5,10.28-7.52.06.01.12.02.18.03,2.89.37,5.99.77,9.23,1.18,12.15,1.57,25.91,3.34,38.13,4.59,25,2.53,39.14-10.59,42.08-24.73,2.99-14.41-5.22-33.57-30.32-41.58-.3-.09-.61-.17-.93-.23l-41.31-7.58c-22.42-4.11-39.86-.94-66.26,3.86-6.98,1.27-14.9,2.7-23.72,4.15l-19.58,3.22-6.03-6.17-18.85-19.3c-35.23-37.77-43.04-96.93-18.96-143.9,1.89-3.68.43-8.2-3.25-10.09-3.69-1.89-8.21-.44-10.1,3.25-26.92,52.52-18.12,118.74,21.41,161.04.04.04.08.08.11.12l17.6,18.02-32.78,5.39v-.86c0-5.79-5.11-10.5-11.39-10.5H11.36C5.1,324.93,0,329.64,0,335.43v131.96c0,5.79,5.1,10.5,11.36,10.5h61.7c6.28,0,11.39-4.71,11.39-10.5v-.91l67.45,18.35,62.26,16.92c14.21,4.41,25.66,6.23,36.11,6.23,16.54,0,30.59-4.54,49.15-10.54,1.65-.53,3.34-1.08,5.08-1.64l122.69-39.34c14.22-4.56,24.34-14.8,27.06-27.39,2.11-9.76-.83-19.4-7.87-25.79-5.7-5.17-19.1-12.59-44.93-4.42l-44.54,8.71,92.54-94.7s.07-.08.11-.12h0ZM15,462.9v-122.97h54.45v5.15s0,.03,0,.05v111.54s0,.02,0,.03v6.2H15ZM405.6,413.29c13.84-4.44,25.03-4.04,30.71,1.11,3.06,2.78,4.26,6.98,3.28,11.5-1.58,7.29-7.93,13.38-16.98,16.28l-122.7,39.35c-1.75.56-3.45,1.11-5.11,1.65-29.35,9.48-44.08,14.25-76.32,4.22-.08-.03-.17-.05-.26-.08l-133.77-36.38v-99.45l72.86-11.97c8.94-1.47,16.93-2.93,23.98-4.21,25.65-4.66,41.14-7.47,60.86-3.85l40.83,7.49c15.92,5.23,21.41,16.12,19.75,24.09-1.91,9.21-12.07,14.26-25.87,12.86-12.02-1.23-25.68-2.99-37.73-4.54-3.22-.42-6.31-.82-9.18-1.18-14.34-2.12-24.45,7.91-27.03,18.94-.55,2.35-.77,4.85-.61,7.37.55,9.12,6,18.58,18.44,22.55.31.1,4.45.87,4.45.87l61.25,11.2c.06.01.13.02.2.03,12.64,1.97,18.11,1.8,25.86.43,2.03-.36,10.31-2.04,12.44-2.45l13.5-2.64s66.87-13.1,67.15-13.19h0Z"/>
</svg>