<?xml version="1.0" encoding="UTF-8"?>
<svg id="Capa_1" xmlns="http://www.w3.org/2000/svg" version="1.1" viewBox="0 0 512 512">
  <!-- Generator: Adobe Illustrator 29.4.0, SVG Export Plug-In . SVG Version: 2.1.0 Build 152)  -->
  <defs>
    <style>
      .st0 {
        fill: #fff;
      }
    </style>
  </defs>
  <path class="st0" d="M494.13,218.39c-4.33-12.18-18.04-46.18-46.48-80.53-20.48-24.73-44.36-44.44-71-58.6-21.55-11.46-44.92-19.23-69.81-23.31-2.08-21.35-20.14-38.1-42.03-38.1s-39.93,16.74-42.02,38.08c-22.97,3.76-44.65,10.69-64.78,20.74-26.04,13-49.6,31.23-70.02,54.2-6.43,7.23,4.77,17.21,11.21,9.97,35.71-40.16,79.97-63.95,131.87-71.01.04,0,.07,0,.11-.01,46.75-6.39,96.2.33,138.12,22.53,24.86,13.16,47.21,31.55,66.43,54.66,23.29,28,36.36,56.33,42.07,70.71H51.83c4.56-11.49,13.81-31.88,29.19-53.84,5.52-7.88-6.69-16.59-12.28-8.61-19.58,27.94-29.63,53.05-33.22,63.13-10.25,2.53-17.87,11.79-17.87,22.81,0,12.95,10.54,23.49,23.49,23.49h113.26l-65.56,84.34H7.5c-4.14,0-7.5,3.36-7.5,7.5v130.12c0,2.18,1,4.19,2.55,5.58,1.33,1.19,3.08,1.93,4.95,1.93.29,0,.59-.02.88-.05l85.01-10.05c3.78-.45,6.62-3.65,6.62-7.45v-27.86l178.08-43.99c5.48-1.01,10.47-3.62,14.43-7.55.09-.09.18-.19.27-.29l90.83-100.18c8.61-8.67,10.27-21.69,4.96-32.04h99.92c12.95,0,23.49-10.54,23.49-23.49,0-11.02-7.62-20.28-17.87-22.81ZM288.89,53.67c-10.32-.93-20.68-1.26-31.03-.99-5.43.14-10.85.46-16.26.92-1.1.1-2.2.18-3.29.28,2.81-12.04,13.64-21.03,26.52-21.03s23.7,8.99,26.52,21.03c-.81-.08-1.64-.14-2.46-.21ZM85.01,469.94l-70.01,8.28v-114.18h70.01v105.9ZM372.91,286.24c-.09.09-.18.19-.27.29l-90.81,100.15c-1.82,1.76-4.1,2.91-6.59,3.35-.17.03-.34.07-.51.11l-174.72,43.16v-74.19s70.65-90.88,70.71-90.97c4.12-5.29,13.29-3.99,17.53.22,4.35,4.33,4.97,11.11,1.47,16.13-.7,1-39.24,60.22-39.29,60.29-3.21,4.92.49,11.56,6.31,11.56h106.65c1.98,0,3.88-.78,5.28-2.18,0,0,86.37-85.71,86.47-85.81,4.88-4.85,12.98-4.81,17.82.07,4.9,4.93,4.86,12.93-.07,17.82ZM203.92,264.69h43.6l-76.65,76.07s30.46-46.67,31.17-47.7c5.98-8.58,6.46-19.49,1.88-28.37ZM215.3,341.34h-23.72l73.55-72.99c2.38-2.36,5.53-3.66,8.88-3.66,4.77,0,9.29,2.82,11.35,7.13l-70.05,69.52ZM310.14,268.35c2.38-2.36,5.53-3.66,8.88-3.66,4.79,0,9.28,2.81,11.35,7.13l-70.05,69.52h-23.72l73.55-72.99ZM488.51,249.69H41.14c-4.68,0-8.49-3.81-8.49-8.49s3.81-8.49,8.49-8.49h447.37c4.68,0,8.49,3.81,8.49,8.49s-3.81,8.49-8.49,8.49Z"/>
</svg>