<?xml version="1.0" encoding="UTF-8"?>
<svg id="Layer_1" xmlns="http://www.w3.org/2000/svg" version="1.1" viewBox="0 0 64 64">
  <!-- Generator: Adobe Illustrator 29.4.0, SVG Export Plug-In . SVG Version: 2.1.0 Build 152)  -->
  <defs>
    <style>
      .st0 {
        fill: #fff;
      }
    </style>
  </defs>
  <g id="Expanded">
    <path class="st0" d="M57,52h-3v-24c1.66,0,3-1.34,3-3v-4c0-1.66-1.34-3-3-3h-14v-2h3c2.76,0,5-2.24,5-5v-2c0-2.76-2.24-5-5-5h-22c-2.76,0-5,2.24-5,5v2c0,2.76,2.24,5,5,5h3v2h-14c-1.66,0-3,1.34-3,3v4c0,1.66,1.34,3,3,3v24h-3c-1.66,0-3,1.34-3,3v2c0,1.66,1.34,3,3,3h50c1.66,0,3-1.34,3-3v-2c0-1.66-1.34-3-3-3ZM18,11v-2c0-1.66,1.34-3,3-3h22c1.66,0,3,1.34,3,3v2c0,1.66-1.34,3-3,3h-22c-1.66,0-3-1.34-3-3ZM26,16h12v2h-12v-2ZM9,25v-4c0-.55.45-1,1-1h44c.55,0,1,.45,1,1v4c0,.55-.45,1-1,1H10c-.55,0-1-.45-1-1ZM52,28v2H12v-2h40ZM12,32h40v20h-2v-15c0-1.66-1.34-3-3-3h-10c-1.66,0-3,1.34-3,3v15H12v-20ZM36,52v-12h5v12h-5ZM48,38h-12v-1c0-.55.45-1,1-1h10c.55,0,1,.45,1,1v1ZM43,40h5v12h-5v-12ZM58,57c0,.55-.45,1-1,1H7c-.55,0-1-.45-1-1v-2c0-.55.45-1,1-1h50c.55,0,1,.45,1,1v2ZM29,34h-12c-1.66,0-3,1.34-3,3v10c0,1.66,1.34,3,3,3h12c1.66,0,3-1.34,3-3v-10c0-1.66-1.34-3-3-3ZM30,47c0,.55-.45,1-1,1h-12c-.55,0-1-.45-1-1v-10c0-.55.45-1,1-1h12c.55,0,1,.45,1,1v10ZM26.54,41.29c.39.39.39,1.02,0,1.41,0,0,0,0,0,0l-2.83,2.83c-.39.39-1.02.39-1.41,0,0,0,0,0,0,0-.39-.39-.39-1.02,0-1.41,0,0,0,0,0,0l2.83-2.83c.39-.39,1.02-.39,1.41,0,0,0,0,0,0,0ZM23.71,39.88l-2.83,2.83c-.19.19-.44.29-.71.29-.27,0-.52-.1-.71-.29-.39-.39-.39-1.02,0-1.41,0,0,0,0,0,0l2.83-2.83c.39-.39,1.03-.39,1.42,0,.39.39.39,1.03,0,1.42Z"/>
  </g>
</svg>