<svg id="Layer_1" data-name="Layer 1" xmlns="http://www.w3.org/2000/svg" xmlns:xlink="http://www.w3.org/1999/xlink" viewBox="0 0 100 100"><defs><style>.cls-1{fill:url(#linear-gradient);}.cls-2{fill:url(#linear-gradient-5);}.cls-3{fill:url(#linear-gradient-6);}.cls-4{fill:url(#linear-gradient-7);}.cls-5{fill:url(#linear-gradient-8);}</style><linearGradient id="linear-gradient" x1="-2664.62" y1="1333.03" x2="11004.41" y2="-5127.46" gradientUnits="userSpaceOnUse"><stop offset="0" stop-color="#fcc280"/><stop offset="1" stop-color="#ab612e"/></linearGradient><linearGradient id="linear-gradient-5" x1="-379.47" y1="266.33" x2="2053.25" y2="-883.46" xlink:href="#linear-gradient"/><linearGradient id="linear-gradient-6" x1="-389.79" y1="244.51" x2="2042.93" y2="-905.28" xlink:href="#linear-gradient"/><linearGradient id="linear-gradient-7" x1="-382.19" y1="260.58" x2="2050.53" y2="-889.21" xlink:href="#linear-gradient"/><linearGradient id="linear-gradient-8" x1="-387.06" y1="250.26" x2="2045.65" y2="-899.53" xlink:href="#linear-gradient"/></defs><title>Art gallery</title><path class="cls-1" d="M64.13,64.61a1.78,1.78,0,0,0,0-2.51L51.26,49.22a1.78,1.78,0,0,0-2.51,0L35.87,62.1a1.78,1.78,0,0,0,0,2.51L48.75,77.48a1.78,1.78,0,0,0,2.51,0ZM50.84,77.06a1.2,1.2,0,0,1-1.68,0L36.29,64.19a1.18,1.18,0,0,1,0-1.67L49.17,49.64a1.18,1.18,0,0,1,1.67,0L63.71,62.52a1.18,1.18,0,0,1,0,1.67Z"/><path class="cls-1" d="M64.13,37.9a1.78,1.78,0,0,0,0-2.51L51.26,22.52a1.78,1.78,0,0,0-2.51,0L35.87,35.39a1.78,1.78,0,0,0,0,2.51L48.75,50.78a1.78,1.78,0,0,0,2.51,0ZM50.84,50.36a1.2,1.2,0,0,1-1.68,0L36.29,37.48a1.18,1.18,0,0,1,0-1.67L49.17,22.94a1.18,1.18,0,0,1,1.67,0L63.71,35.81a1.18,1.18,0,0,1,0,1.67Z"/><path class="cls-1" d="M64.61,35.87a1.78,1.78,0,0,0-2.51,0L49.22,48.74a1.78,1.78,0,0,0,0,2.51L62.1,64.13a1.78,1.78,0,0,0,2.51,0L77.48,51.25a1.78,1.78,0,0,0,0-2.51Zm12.45,13.3a1.17,1.17,0,0,1,0,1.66L64.19,63.71a1.18,1.18,0,0,1-1.67,0L49.64,50.83a1.18,1.18,0,0,1,0-1.66L62.52,36.29a1.18,1.18,0,0,1,1.67,0Z"/><path class="cls-1" d="M37.9,35.87a1.78,1.78,0,0,0-2.51,0L22.52,48.74a1.78,1.78,0,0,0,0,2.51L35.39,64.13a1.78,1.78,0,0,0,2.51,0L50.78,51.25a1.78,1.78,0,0,0,0-2.51Zm12.46,13.3a1.17,1.17,0,0,1,0,1.66L37.48,63.71a1.18,1.18,0,0,1-1.67,0L22.94,50.83a1.17,1.17,0,0,1,0-1.66L35.81,36.29a1.18,1.18,0,0,1,1.67,0Z"/><path class="cls-2" d="M64.13,64.61a1.78,1.78,0,0,0,0-2.51L51.26,49.22a1.78,1.78,0,0,0-2.51,0L35.87,62.1a1.78,1.78,0,0,0,0,2.51L48.75,77.48a1.78,1.78,0,0,0,2.51,0ZM50.84,77.06a1.2,1.2,0,0,1-1.68,0L36.29,64.19a1.18,1.18,0,0,1,0-1.67L49.17,49.64a1.18,1.18,0,0,1,1.67,0L63.71,62.52a1.18,1.18,0,0,1,0,1.67Z"/><path class="cls-3" d="M64.13,37.9a1.78,1.78,0,0,0,0-2.51L51.26,22.52a1.78,1.78,0,0,0-2.51,0L35.87,35.39a1.78,1.78,0,0,0,0,2.51L48.75,50.78a1.78,1.78,0,0,0,2.51,0ZM50.84,50.36a1.2,1.2,0,0,1-1.68,0L36.29,37.48a1.18,1.18,0,0,1,0-1.67L49.17,22.94a1.18,1.18,0,0,1,1.67,0L63.71,35.81a1.18,1.18,0,0,1,0,1.67Z"/><path class="cls-4" d="M64.61,35.87a1.78,1.78,0,0,0-2.51,0L49.22,48.74a1.78,1.78,0,0,0,0,2.51L62.1,64.13a1.78,1.78,0,0,0,2.51,0L77.48,51.25a1.78,1.78,0,0,0,0-2.51Zm12.45,13.3a1.17,1.17,0,0,1,0,1.66L64.19,63.71a1.18,1.18,0,0,1-1.67,0L49.64,50.83a1.18,1.18,0,0,1,0-1.66L62.52,36.29a1.18,1.18,0,0,1,1.67,0Z"/><path class="cls-5" d="M37.9,35.87a1.78,1.78,0,0,0-2.51,0L22.52,48.74a1.78,1.78,0,0,0,0,2.51L35.39,64.13a1.78,1.78,0,0,0,2.51,0L50.78,51.25a1.78,1.78,0,0,0,0-2.51Zm12.46,13.3a1.17,1.17,0,0,1,0,1.66L37.48,63.71a1.18,1.18,0,0,1-1.67,0L22.94,50.83a1.17,1.17,0,0,1,0-1.66L35.81,36.29a1.18,1.18,0,0,1,1.67,0Z"/></svg>