<svg id="Layer_1" data-name="Layer 1" xmlns="http://www.w3.org/2000/svg" xmlns:xlink="http://www.w3.org/1999/xlink" viewBox="0 0 100 100"><defs><style>.cls-1{fill:url(#linear-gradient);}.cls-2{fill:url(#linear-gradient-8);}.cls-3{fill:url(#linear-gradient-9);}.cls-4{fill:url(#linear-gradient-10);}.cls-5{fill:url(#linear-gradient-11);}.cls-6{fill:url(#linear-gradient-12);}.cls-7{fill:url(#linear-gradient-13);}.cls-8{fill:url(#linear-gradient-14);}</style><linearGradient id="linear-gradient" x1="-3701.38" y1="1823.09" x2="15188.6" y2="-7105.01" gradientUnits="userSpaceOnUse"><stop offset="0" stop-color="#fcc280"/><stop offset="1" stop-color="#ab612e"/></linearGradient><linearGradient id="linear-gradient-8" x1="-735.66" y1="409.32" x2="2068.6" y2="-916.08" xlink:href="#linear-gradient"/><linearGradient id="linear-gradient-9" x1="-736.1" y1="408.4" x2="2068.17" y2="-917" xlink:href="#linear-gradient"/><linearGradient id="linear-gradient-10" x1="-731.82" y1="417.46" x2="2072.45" y2="-907.94" xlink:href="#linear-gradient"/><linearGradient id="linear-gradient-11" x1="-726.87" y1="427.93" x2="2077.4" y2="-897.47" xlink:href="#linear-gradient"/><linearGradient id="linear-gradient-12" x1="-727.3" y1="427.01" x2="2076.96" y2="-898.39" xlink:href="#linear-gradient"/><linearGradient id="linear-gradient-13" x1="-723.02" y1="436.07" x2="2081.25" y2="-889.33" xlink:href="#linear-gradient"/><linearGradient id="linear-gradient-14" x1="-731" y1="419.18" x2="2073.26" y2="-906.22" xlink:href="#linear-gradient"/></defs><title>CarLift</title><path class="cls-1" d="M44.71,36.68H64.24a.4.4,0,0,0,.37-.26.39.39,0,0,0-.13-.43,17.51,17.51,0,0,0-1.87-1.21,21.31,21.31,0,0,0-4.76-2,14.73,14.73,0,0,0-6.48-.4A13.25,13.25,0,0,0,44.44,36a.4.4,0,0,0-.09.42A.4.4,0,0,0,44.71,36.68ZM57.62,33.5a20.63,20.63,0,0,1,4.59,1.93c.29.17.56.33.79.48H45.7A12.38,12.38,0,0,1,57.62,33.5Z"/><path class="cls-1" d="M39,42.56a1,1,0,1,0-1,1A1,1,0,0,0,39,42.56Zm-1.27,0a.25.25,0,1,1,.25.25A.25.25,0,0,1,37.69,42.56Z"/><path class="cls-1" d="M61.39,41.54a1,1,0,1,0,1,1A1,1,0,0,0,61.39,41.54Zm0,1.27a.25.25,0,1,1,.25-.25A.25.25,0,0,1,61.39,42.81Z"/><path class="cls-1" d="M44.71,59.44H64.24a.38.38,0,0,0,.24-.68,17.51,17.51,0,0,0-1.87-1.21,21.31,21.31,0,0,0-4.76-2,14.73,14.73,0,0,0-6.48-.4,13.18,13.18,0,0,0-6.93,3.65.39.39,0,0,0-.09.41A.38.38,0,0,0,44.71,59.44Zm12.91-3.17a20.63,20.63,0,0,1,4.59,1.93c.29.17.56.33.79.48H45.7A12.38,12.38,0,0,1,57.62,56.27Z"/><path class="cls-1" d="M37.94,66.35a1,1,0,1,0-1-1A1,1,0,0,0,37.94,66.35Zm0-1.27a.25.25,0,1,1-.25.25A.25.25,0,0,1,37.94,65.08Z"/><path class="cls-1" d="M61.39,64.31a1,1,0,1,0,1,1A1,1,0,0,0,61.39,64.31Zm0,1.27a.25.25,0,1,1,.25-.25A.25.25,0,0,1,61.39,65.58Z"/><path class="cls-1" d="M77.62,67.81H76v-22h1.65a.38.38,0,0,0,0-.76H76V22.4a.38.38,0,0,0-.38-.39H72.78a.38.38,0,0,0-.38.39V45H63.49a3.21,3.21,0,0,0,1.12-2.18l4.3-1.42A1.52,1.52,0,0,0,70,40V36a2.4,2.4,0,0,0-2.4-2.4H65.63a20.06,20.06,0,0,0-2.17-1.32,24.42,24.42,0,0,0-5.74-2.19A16.22,16.22,0,0,0,50.11,30a15.05,15.05,0,0,0-7.71,4.86c-.39,0-1.35,0-2.62.07a25,25,0,0,0-5.9,1.1,4.93,4.93,0,0,0-1.42.74,5,5,0,0,0-1.09,1.12,4.8,4.8,0,0,0-.87,3v0a2.18,2.18,0,0,0,2.18,2.07h2A3.18,3.18,0,0,0,35.84,45h-8V22.37a.38.38,0,0,0-.38-.38H24.62a.38.38,0,0,0-.38.38V45H22.38a.38.38,0,0,0,0,.76h1.86v22H22.38a.39.39,0,0,0,0,.77h1.86v9a.38.38,0,0,0,.38.39h2.81a.38.38,0,0,0,.38-.39v-9H72.4v9a.38.38,0,0,0,.38.38h2.81a.38.38,0,0,0,.38-.38v-9h1.65a.39.39,0,0,0,0-.77ZM61.62,45h-.46a2.47,2.47,0,1,1,.46,0ZM41.15,42.94h17A3.27,3.27,0,0,0,59.29,45H40A3.27,3.27,0,0,0,41.15,42.94Zm-9.88-2.11v0a4.15,4.15,0,0,1,2.86-4.09,24.56,24.56,0,0,1,5.7-1.06,25.4,25.4,0,0,1,2.73-.07.44.44,0,0,0,.31-.13c3.87-4.47,8.8-6,14.67-4.67a23.56,23.56,0,0,1,5.54,2.12,18.83,18.83,0,0,1,2.21,1.34.39.39,0,0,0,.23.07h2A1.64,1.64,0,0,1,69.19,36v4a.76.76,0,0,1-.52.69L64.59,42a3.24,3.24,0,0,0-6.41.13h-17a3.23,3.23,0,0,0-6.42,0h-2A1.41,1.41,0,0,1,31.27,40.83Zm4.2,1.73h0A2.47,2.47,0,1,1,38.17,45h-.46A2.48,2.48,0,0,1,35.47,42.56ZM27,77.22H25V22.75h2Zm5.64-12.28a1.41,1.41,0,0,1-1.41-1.34v0a4.15,4.15,0,0,1,2.86-4.09,24.56,24.56,0,0,1,5.7-1.06,25.4,25.4,0,0,1,2.73-.07.41.41,0,0,0,.31-.14c3.87-4.46,8.8-6,14.67-4.66a23.56,23.56,0,0,1,5.54,2.12A18.83,18.83,0,0,1,65.28,57a.39.39,0,0,0,.23.07h2a1.64,1.64,0,0,1,1.63,1.64v4a.76.76,0,0,1-.52.69l-4.08,1.35a3.24,3.24,0,0,0-6.41.13h-17a3.23,3.23,0,0,0-6.42,0ZM61.39,67.8a2.47,2.47,0,1,1,2.47-2.47A2.48,2.48,0,0,1,61.39,67.8ZM35.47,65.33a2.47,2.47,0,1,1,2.47,2.47,2.47,2.47,0,0,1-2.47-2.47Zm5.68.38h17a3.24,3.24,0,0,0,1.14,2.1H40A3.24,3.24,0,0,0,41.15,65.71Zm22.31,2.1a3.18,3.18,0,0,0,1.15-2.2l4.3-1.42a1.53,1.53,0,0,0,1-1.4V58.73a2.4,2.4,0,0,0-2.4-2.4H65.63A20.06,20.06,0,0,0,63.46,55a24.42,24.42,0,0,0-5.74-2.19,16.22,16.22,0,0,0-7.61-.09,15,15,0,0,0-7.71,4.85c-.39,0-1.35,0-2.62.08a25,25,0,0,0-5.9,1.1,4.93,4.93,0,0,0-1.42.74,4.85,4.85,0,0,0-2,4.12v0a2.18,2.18,0,0,0,2.18,2.07h2a3.24,3.24,0,0,0,1.14,2.1H27.81v-22H72.4v22Zm11.75,9.44h-2V22.78h2Z"/><path class="cls-2" d="M44.71,36.68H64.24a.4.4,0,0,0,.37-.26.39.39,0,0,0-.13-.43,17.51,17.51,0,0,0-1.87-1.21,21.31,21.31,0,0,0-4.76-2,14.73,14.73,0,0,0-6.48-.4A13.25,13.25,0,0,0,44.44,36a.4.4,0,0,0-.09.42A.4.4,0,0,0,44.71,36.68ZM57.62,33.5a20.63,20.63,0,0,1,4.59,1.93c.29.17.56.33.79.48H45.7A12.38,12.38,0,0,1,57.62,33.5Z"/><path class="cls-3" d="M39,42.56a1,1,0,1,0-1,1A1,1,0,0,0,39,42.56Zm-1.27,0a.25.25,0,1,1,.25.25A.25.25,0,0,1,37.69,42.56Z"/><path class="cls-4" d="M61.39,41.54a1,1,0,1,0,1,1A1,1,0,0,0,61.39,41.54Zm0,1.27a.25.25,0,1,1,.25-.25A.25.25,0,0,1,61.39,42.81Z"/><path class="cls-5" d="M44.71,59.44H64.24a.38.38,0,0,0,.24-.68,17.51,17.51,0,0,0-1.87-1.21,21.31,21.31,0,0,0-4.76-2,14.73,14.73,0,0,0-6.48-.4,13.18,13.18,0,0,0-6.93,3.65.39.39,0,0,0-.09.41A.38.38,0,0,0,44.71,59.44Zm12.91-3.17a20.63,20.63,0,0,1,4.59,1.93c.29.17.56.33.79.48H45.7A12.38,12.38,0,0,1,57.62,56.27Z"/><path class="cls-6" d="M37.94,66.35a1,1,0,1,0-1-1A1,1,0,0,0,37.94,66.35Zm0-1.27a.25.25,0,1,1-.25.25A.25.25,0,0,1,37.94,65.08Z"/><path class="cls-7" d="M61.39,64.31a1,1,0,1,0,1,1A1,1,0,0,0,61.39,64.31Zm0,1.27a.25.25,0,1,1,.25-.25A.25.25,0,0,1,61.39,65.58Z"/><path class="cls-8" d="M77.62,67.81H76v-22h1.65a.38.38,0,0,0,0-.76H76V22.4a.38.38,0,0,0-.38-.39H72.78a.38.38,0,0,0-.38.39V45H63.49a3.21,3.21,0,0,0,1.12-2.18l4.3-1.42A1.52,1.52,0,0,0,70,40V36a2.4,2.4,0,0,0-2.4-2.4H65.63a20.06,20.06,0,0,0-2.17-1.32,24.42,24.42,0,0,0-5.74-2.19A16.22,16.22,0,0,0,50.11,30a15.05,15.05,0,0,0-7.71,4.86c-.39,0-1.35,0-2.62.07a25,25,0,0,0-5.9,1.1,4.93,4.93,0,0,0-1.42.74,5,5,0,0,0-1.09,1.12,4.8,4.8,0,0,0-.87,3v0a2.18,2.18,0,0,0,2.18,2.07h2A3.18,3.18,0,0,0,35.84,45h-8V22.37a.38.38,0,0,0-.38-.38H24.62a.38.38,0,0,0-.38.38V45H22.38a.38.38,0,0,0,0,.76h1.86v22H22.38a.39.39,0,0,0,0,.77h1.86v9a.38.38,0,0,0,.38.39h2.81a.38.38,0,0,0,.38-.39v-9H72.4v9a.38.38,0,0,0,.38.38h2.81a.38.38,0,0,0,.38-.38v-9h1.65a.39.39,0,0,0,0-.77ZM61.62,45h-.46a2.47,2.47,0,1,1,.46,0ZM41.15,42.94h17A3.27,3.27,0,0,0,59.29,45H40A3.27,3.27,0,0,0,41.15,42.94Zm-9.88-2.11v0a4.15,4.15,0,0,1,2.86-4.09,24.56,24.56,0,0,1,5.7-1.06,25.4,25.4,0,0,1,2.73-.07.44.44,0,0,0,.31-.13c3.87-4.47,8.8-6,14.67-4.67a23.56,23.56,0,0,1,5.54,2.12,18.83,18.83,0,0,1,2.21,1.34.39.39,0,0,0,.23.07h2A1.64,1.64,0,0,1,69.19,36v4a.76.76,0,0,1-.52.69L64.59,42a3.24,3.24,0,0,0-6.41.13h-17a3.23,3.23,0,0,0-6.42,0h-2A1.41,1.41,0,0,1,31.27,40.83Zm4.2,1.73h0A2.47,2.47,0,1,1,38.17,45h-.46A2.48,2.48,0,0,1,35.47,42.56ZM27,77.22H25V22.75h2Zm5.64-12.28a1.41,1.41,0,0,1-1.41-1.34v0a4.15,4.15,0,0,1,2.86-4.09,24.56,24.56,0,0,1,5.7-1.06,25.4,25.4,0,0,1,2.73-.07.41.41,0,0,0,.31-.14c3.87-4.46,8.8-6,14.67-4.66a23.56,23.56,0,0,1,5.54,2.12A18.83,18.83,0,0,1,65.28,57a.39.39,0,0,0,.23.07h2a1.64,1.64,0,0,1,1.63,1.64v4a.76.76,0,0,1-.52.69l-4.08,1.35a3.24,3.24,0,0,0-6.41.13h-17a3.23,3.23,0,0,0-6.42,0ZM61.39,67.8a2.47,2.47,0,1,1,2.47-2.47A2.48,2.48,0,0,1,61.39,67.8ZM35.47,65.33a2.47,2.47,0,1,1,2.47,2.47,2.47,2.47,0,0,1-2.47-2.47Zm5.68.38h17a3.24,3.24,0,0,0,1.14,2.1H40A3.24,3.24,0,0,0,41.15,65.71Zm22.31,2.1a3.18,3.18,0,0,0,1.15-2.2l4.3-1.42a1.53,1.53,0,0,0,1-1.4V58.73a2.4,2.4,0,0,0-2.4-2.4H65.63A20.06,20.06,0,0,0,63.46,55a24.42,24.42,0,0,0-5.74-2.19,16.22,16.22,0,0,0-7.61-.09,15,15,0,0,0-7.71,4.85c-.39,0-1.35,0-2.62.08a25,25,0,0,0-5.9,1.1,4.93,4.93,0,0,0-1.42.74,4.85,4.85,0,0,0-2,4.12v0a2.18,2.18,0,0,0,2.18,2.07h2a3.24,3.24,0,0,0,1.14,2.1H27.81v-22H72.4v22Zm11.75,9.44h-2V22.78h2Z"/></svg>