<svg id="Layer_1" data-name="Layer 1" xmlns="http://www.w3.org/2000/svg" xmlns:xlink="http://www.w3.org/1999/xlink" viewBox="0 0 100 100"><defs><style>.cls-1{fill:url(#linear-gradient);}.cls-2{fill:url(#linear-gradient-2);}</style><linearGradient id="linear-gradient" x1="-3501.3" y1="1717.35" x2="14341.94" y2="-6716.02" gradientUnits="userSpaceOnUse"><stop offset="0" stop-color="#fcc280"/><stop offset="1" stop-color="#ab612e"/></linearGradient><linearGradient id="linear-gradient-2" x1="-349.61" y1="227.74" x2="2083.11" y2="-922.05" xlink:href="#linear-gradient"/></defs><title>CCTV</title><path class="cls-1" d="M74.79,53.16,78,44.88a.64.64,0,0,0-.47-.77h0l-4.14-1.53,3.72-3.28c.29-.3.24-.51.22-.58a.66.66,0,0,0-.33-.42L30.25,22.21a.59.59,0,0,0-.78.34L23.28,40.76a.54.54,0,0,0,0,.46.65.65,0,0,0,.35.34l11,3.74-.14.54a5.86,5.86,0,0,0,3.77,7l1.52.5-1,13.69-15.55,1.8v-7a.6.6,0,0,0-1.19,0V77.23a.6.6,0,0,0,1.19,0V70l16.12-1.84a.66.66,0,0,0,.55-.6l1-13.75.7.2a5.85,5.85,0,0,0,7-3.24l.22-.5L60,54.17a.72.72,0,0,0,.58-.1l4.21-3.7L74,53.58c.51.17.82-.42.82-.42M47.43,50.42a4.52,4.52,0,0,1-4.09,2.66,5.1,5.1,0,0,1-1.65-.28l-3.1-1.08a4.81,4.81,0,0,1-3.13-5.42l.12-.69,12.06,4.24ZM60.1,52.91,48.7,49,35.49,44.34,24.58,40.58,30.44,23.5,75.52,39.15Zm13.66-.76-7.91-2.78,6.48-5.91L76.57,45Z"/><path class="cls-2" d="M74.79,53.16,78,44.88a.64.64,0,0,0-.47-.77h0l-4.14-1.53,3.72-3.28c.29-.3.24-.51.22-.58a.66.66,0,0,0-.33-.42L30.25,22.21a.59.59,0,0,0-.78.34L23.28,40.76a.54.54,0,0,0,0,.46.65.65,0,0,0,.35.34l11,3.74-.14.54a5.86,5.86,0,0,0,3.77,7l1.52.5-1,13.69-15.55,1.8v-7a.6.6,0,0,0-1.19,0V77.23a.6.6,0,0,0,1.19,0V70l16.12-1.84a.66.66,0,0,0,.55-.6l1-13.75.7.2a5.85,5.85,0,0,0,7-3.24l.22-.5L60,54.17a.72.72,0,0,0,.58-.1l4.21-3.7L74,53.58c.51.17.82-.42.82-.42M47.43,50.42a4.52,4.52,0,0,1-4.09,2.66,5.1,5.1,0,0,1-1.65-.28l-3.1-1.08a4.81,4.81,0,0,1-3.13-5.42l.12-.69,12.06,4.24ZM60.1,52.91,48.7,49,35.49,44.34,24.58,40.58,30.44,23.5,75.52,39.15Zm13.66-.76-7.91-2.78,6.48-5.91L76.57,45Z"/></svg>