<svg id="Layer_1" data-name="Layer 1" xmlns="http://www.w3.org/2000/svg" xmlns:xlink="http://www.w3.org/1999/xlink" viewBox="0 0 100 100"><defs><style>.cls-1{fill:url(#linear-gradient);}.cls-2{fill:url(#linear-gradient-5);}.cls-3{fill:url(#linear-gradient-6);}.cls-4{fill:url(#linear-gradient-7);}.cls-5{fill:url(#linear-gradient-8);}</style><linearGradient id="linear-gradient" x1="-3841.49" y1="1889.26" x2="15753.46" y2="-7372.04" gradientUnits="userSpaceOnUse"><stop offset="0" stop-color="#fcc280"/><stop offset="1" stop-color="#ab612e"/></linearGradient><linearGradient id="linear-gradient-5" x1="-1208.38" y1="620.92" x2="1224.33" y2="-528.87" xlink:href="#linear-gradient"/><linearGradient id="linear-gradient-6" x1="-1201.68" y1="635.09" x2="1231.02" y2="-514.7" xlink:href="#linear-gradient"/><linearGradient id="linear-gradient-7" x1="-1189.96" y1="659.89" x2="1242.75" y2="-489.9" xlink:href="#linear-gradient"/><linearGradient id="linear-gradient-8" x1="-1196.66" y1="645.72" x2="1236.05" y2="-504.07" xlink:href="#linear-gradient"/></defs><title>Centre Position</title><g id="arrow-shrink-7"><path class="cls-1" d="M40.86,42.6H30.27v2.47h14.8V30.27H42.6V40.86L23.74,22,22,23.74Z"/><path class="cls-1" d="M76.26,22,57.4,40.86V30.27H54.93v14.8h14.8V42.6H59.14L78,23.74Z"/><path class="cls-1" d="M69.73,54.93H54.93v14.8H57.4V59.14L76.26,78,78,76.26,59.14,57.4H69.73Z"/><path class="cls-1" d="M23.74,78,42.6,59.14V69.73h2.47V54.93H30.27V57.4H40.86L22,76.26Z"/><path class="cls-2" d="M40.86,42.6H30.27v2.47h14.8V30.27H42.6V40.86L23.74,22,22,23.74Z"/><path class="cls-3" d="M76.26,22,57.4,40.86V30.27H54.93v14.8h14.8V42.6H59.14L78,23.74Z"/><path class="cls-4" d="M69.73,54.93H54.93v14.8H57.4V59.14L76.26,78,78,76.26,59.14,57.4H69.73Z"/><path class="cls-5" d="M23.74,78,42.6,59.14V69.73h2.47V54.93H30.27V57.4H40.86L22,76.26Z"/></g></svg>