<svg id="Layer_1" data-name="Layer 1" xmlns="http://www.w3.org/2000/svg" xmlns:xlink="http://www.w3.org/1999/xlink" viewBox="0 0 100 100"><defs><style>.cls-1{fill:url(#linear-gradient);}.cls-2{fill:url(#linear-gradient-5);}.cls-3{fill:url(#linear-gradient-7);}.cls-4{fill:url(#linear-gradient-8);}</style><linearGradient id="linear-gradient" x1="-2933.13" y1="1459.94" x2="12087.94" y2="-5639.58" gradientUnits="userSpaceOnUse"><stop offset="0" stop-color="#fcc280"/><stop offset="1" stop-color="#ab612e"/></linearGradient><linearGradient id="linear-gradient-5" x1="-821.01" y1="461.67" x2="1981.95" y2="-863.11" xlink:href="#linear-gradient"/><linearGradient id="linear-gradient-7" x1="-823.71" y1="455.96" x2="1979.25" y2="-868.82" xlink:href="#linear-gradient"/><linearGradient id="linear-gradient-8" x1="-818.31" y1="467.38" x2="1984.65" y2="-857.4" xlink:href="#linear-gradient"/></defs><title>CheckIn Point</title><path class="cls-1" d="M50,27.27a22.65,22.65,0,1,1-8.85,1.78A22.67,22.67,0,0,1,50,27.27m0-.77A23.5,23.5,0,1,0,73.5,50,23.5,23.5,0,0,0,50,26.5Z"/><path class="cls-1" d="M50,78a27.91,27.91,0,1,1,10.9-2.2A27.82,27.82,0,0,1,50,78Zm0-53.51a25.39,25.39,0,1,0,9.93,2A25.35,25.35,0,0,0,50,24.49Z"/><path class="cls-1" d="M62.6,42.33l-8-5.66a.9.9,0,0,0-1.39.93l.72,3.12-15.69-.61A1.16,1.16,0,0,0,37,41.27v3.58A1.16,1.16,0,0,0,38.22,46l15.69-.6-.72,3.11a.9.9,0,0,0,1.39.94l8-5.66A.9.9,0,0,0,62.6,42.33Z"/><path class="cls-1" d="M37.4,56.21l8-5.66a.9.9,0,0,1,1.39.94l-.72,3.11L61.78,54A1.16,1.16,0,0,1,63,55.15v3.58a1.16,1.16,0,0,1-1.2,1.16l-15.69-.61.72,3.12a.9.9,0,0,1-1.39.93l-8-5.66A.9.9,0,0,1,37.4,56.21Z"/><path class="cls-2" d="M50,27.27a22.65,22.65,0,1,1-8.85,1.78A22.67,22.67,0,0,1,50,27.27m0-.77A23.5,23.5,0,1,0,73.5,50,23.5,23.5,0,0,0,50,26.5Z"/><path class="cls-2" d="M50,78a27.91,27.91,0,1,1,10.9-2.2A27.82,27.82,0,0,1,50,78Zm0-53.51a25.39,25.39,0,1,0,9.93,2A25.35,25.35,0,0,0,50,24.49Z"/><path class="cls-3" d="M62.6,42.33l-8-5.66a.9.9,0,0,0-1.39.93l.72,3.12-15.69-.61A1.16,1.16,0,0,0,37,41.27v3.58A1.16,1.16,0,0,0,38.22,46l15.69-.6-.72,3.11a.9.9,0,0,0,1.39.94l8-5.66A.9.9,0,0,0,62.6,42.33Z"/><path class="cls-4" d="M37.4,56.21l8-5.66a.9.9,0,0,1,1.39.94l-.72,3.11L61.78,54A1.16,1.16,0,0,1,63,55.15v3.58a1.16,1.16,0,0,1-1.2,1.16l-15.69-.61.72,3.12a.9.9,0,0,1-1.39.93l-8-5.66A.9.9,0,0,1,37.4,56.21Z"/></svg>