<svg id="Layer_1" data-name="Layer 1" xmlns="http://www.w3.org/2000/svg" xmlns:xlink="http://www.w3.org/1999/xlink" viewBox="0 0 100 100"><defs><style>.cls-1{fill:url(#linear-gradient);}.cls-2{fill:url(#linear-gradient-2);}</style><linearGradient id="linear-gradient" x1="-2823.15" y1="1410.24" x2="11632.08" y2="-5421.83" gradientUnits="userSpaceOnUse"><stop offset="0" stop-color="#fcc280"/><stop offset="1" stop-color="#ab612e"/></linearGradient><linearGradient id="linear-gradient-2" x1="-176.55" y1="159.36" x2="1818.34" y2="-783.49" xlink:href="#linear-gradient"/></defs><title>Enterance lobby</title><path class="cls-1" d="M75,48.38H67.42l-3,13.94h6.44A10.27,10.27,0,0,1,52.07,67.7a5.13,5.13,0,0,0,2.75.78,5,5,0,0,0,5-4.2H63l-1.06-7.5a1.15,1.15,0,0,0-1.12-1H58.35a1.14,1.14,0,0,0-1.12,1l-1.07,7.5h3a4.47,4.47,0,0,1-8,1.74L51.12,66a9.8,9.8,0,0,1-.56-1.79,2.65,2.65,0,0,0,2.07-2.58,14,14,0,0,0-.28-2.18,16.26,16.26,0,0,0-.67-2.63l.67-7c0-.12,0-.17-.05-.23a.41.41,0,0,0-.23-.11h-1a1.1,1.1,0,0,0,.17-.56,3.76,3.76,0,0,0-.79-1.57,3.44,3.44,0,0,0,.79-1.57,1.33,1.33,0,0,0-.39-.89,1.35,1.35,0,0,0,.39-.9,3.76,3.76,0,0,0-.79-1.57,3.46,3.46,0,0,0,.79-1.56,1.33,1.33,0,0,0-.39-.9,1.33,1.33,0,0,0,.39-.9,3.73,3.73,0,0,0-.79-1.56,3.54,3.54,0,0,0,.79-1.57.93.93,0,0,0-.17-.56h.17a1.15,1.15,0,0,0,1.12-1l1-7.28H46.58l1.07,7.5a1.14,1.14,0,0,0,1.12,1h.17a1,1,0,0,0-.17.56,3.74,3.74,0,0,0,.78,1.57,3.43,3.43,0,0,0-.78,1.57,1.33,1.33,0,0,0,.39.89,1.35,1.35,0,0,0-.39.9,3.74,3.74,0,0,0,.78,1.57,3.43,3.43,0,0,0-.78,1.57,1.33,1.33,0,0,0,.39.89,1.33,1.33,0,0,0-.39.9,3.71,3.71,0,0,0,.78,1.56,3.52,3.52,0,0,0-.78,1.57.89.89,0,0,0,.17.56h-1a.31.31,0,0,0-.23.12c-.05,0-.11.16-.05.22l.67,6.78v0c-.22.73-.45,1.68-.67,2.63v.12a13.7,13.7,0,0,0-.28,2.07,2.69,2.69,0,0,0,2.07,2.57A8.42,8.42,0,0,1,48.88,66a4.44,4.44,0,0,1-8-1.68H44l-1.06-7.5a1.15,1.15,0,0,0-1.12-1H39.31a1.14,1.14,0,0,0-1.12,1l-1.07,7.5h3.14a5,5,0,0,0,5,4.2A5.43,5.43,0,0,0,48,67.7a10.43,10.43,0,0,1-8.57,4.59,10.29,10.29,0,0,1-10.31-10h6.44l-3-13.94H25L22,62.32h6.44a10.94,10.94,0,0,0,21,4A7.22,7.22,0,0,0,50,65.23a3.4,3.4,0,0,0,.5,1l.06.06a10.94,10.94,0,0,0,21-4H78ZM56.83,63.66l1-6.77a.55.55,0,0,1,.51-.45h2.47a.46.46,0,0,1,.5.45l1,6.77Zm-19,0,1-6.77a.54.54,0,0,1,.51-.45h2.46a.46.46,0,0,1,.51.45l1,6.77Zm-15-1.95,2.68-12.66h6.61l2.69,12.66Zm26-26.78a.45.45,0,0,1-.5-.44l-1-6.78h5.43l-1,6.78a.53.53,0,0,1-.5.44Zm.67,1.18a.56.56,0,0,1,1.12,0,3.1,3.1,0,0,1-.56,1,2.36,2.36,0,0,1-.56-1M50,38.18a3.1,3.1,0,0,1,.56,1,.56.56,0,0,1-1.12,0,3.1,3.1,0,0,1,.56-1M49.44,41a.57.57,0,0,1,.56-.56.56.56,0,0,1,.56.56A3.1,3.1,0,0,1,50,42a3.1,3.1,0,0,1-.56-1M50,43.06a3.08,3.08,0,0,1,.56,1,.56.56,0,0,1-1.12,0,3.08,3.08,0,0,1,.56-1m-.56,2.79a.56.56,0,1,1,1.12,0,3.1,3.1,0,0,1-.56,1,3.1,3.1,0,0,1-.56-1M50,47.93a3.1,3.1,0,0,1,.56,1,.56.56,0,0,1-1.12,0,3.1,3.1,0,0,1,.56-1m-.34,14.89h0a3,3,0,0,1-.11.73A2,2,0,0,1,48,61.65c0-.4.11-1.12.22-2v-.11a14.93,14.93,0,0,1,.45-1.91,10.7,10.7,0,0,1,1,4.37,4.41,4.41,0,0,1,0,.78M50,59.41a11.7,11.7,0,0,0-1.06-2.75l-.62-6.49h3.36l-.62,6.55A11.69,11.69,0,0,0,50,59.41m.45,4.2c-.06-.23-.06-.51-.11-.73s-.06-.56-.06-.84a10.88,10.88,0,0,1,.95-4.37c.17.62.34,1.29.45,1.91A12.8,12.8,0,0,1,52,61.65a2,2,0,0,1-1.51,2m14.79-1.9,2.68-12.66h6.61l2.69,12.66Z"/><path class="cls-2" d="M75,48.38H67.42l-3,13.94h6.44A10.27,10.27,0,0,1,52.07,67.7a5.13,5.13,0,0,0,2.75.78,5,5,0,0,0,5-4.2H63l-1.06-7.5a1.15,1.15,0,0,0-1.12-1H58.35a1.14,1.14,0,0,0-1.12,1l-1.07,7.5h3a4.47,4.47,0,0,1-8,1.74L51.12,66a9.8,9.8,0,0,1-.56-1.79,2.65,2.65,0,0,0,2.07-2.58,14,14,0,0,0-.28-2.18,16.26,16.26,0,0,0-.67-2.63l.67-7c0-.12,0-.17-.05-.23a.41.41,0,0,0-.23-.11h-1a1.1,1.1,0,0,0,.17-.56,3.76,3.76,0,0,0-.79-1.57,3.44,3.44,0,0,0,.79-1.57,1.33,1.33,0,0,0-.39-.89,1.35,1.35,0,0,0,.39-.9,3.76,3.76,0,0,0-.79-1.57,3.46,3.46,0,0,0,.79-1.56,1.33,1.33,0,0,0-.39-.9,1.33,1.33,0,0,0,.39-.9,3.73,3.73,0,0,0-.79-1.56,3.54,3.54,0,0,0,.79-1.57.93.93,0,0,0-.17-.56h.17a1.15,1.15,0,0,0,1.12-1l1-7.28H46.58l1.07,7.5a1.14,1.14,0,0,0,1.12,1h.17a1,1,0,0,0-.17.56,3.74,3.74,0,0,0,.78,1.57,3.43,3.43,0,0,0-.78,1.57,1.33,1.33,0,0,0,.39.89,1.35,1.35,0,0,0-.39.9,3.74,3.74,0,0,0,.78,1.57,3.43,3.43,0,0,0-.78,1.57,1.33,1.33,0,0,0,.39.89,1.33,1.33,0,0,0-.39.9,3.71,3.71,0,0,0,.78,1.56,3.52,3.52,0,0,0-.78,1.57.89.89,0,0,0,.17.56h-1a.31.31,0,0,0-.23.12c-.05,0-.11.16-.05.22l.67,6.78v0c-.22.73-.45,1.68-.67,2.63v.12a13.7,13.7,0,0,0-.28,2.07,2.69,2.69,0,0,0,2.07,2.57A8.42,8.42,0,0,1,48.88,66a4.44,4.44,0,0,1-8-1.68H44l-1.06-7.5a1.15,1.15,0,0,0-1.12-1H39.31a1.14,1.14,0,0,0-1.12,1l-1.07,7.5h3.14a5,5,0,0,0,5,4.2A5.43,5.43,0,0,0,48,67.7a10.43,10.43,0,0,1-8.57,4.59,10.29,10.29,0,0,1-10.31-10h6.44l-3-13.94H25L22,62.32h6.44a10.94,10.94,0,0,0,21,4A7.22,7.22,0,0,0,50,65.23a3.4,3.4,0,0,0,.5,1l.06.06a10.94,10.94,0,0,0,21-4H78ZM56.83,63.66l1-6.77a.55.55,0,0,1,.51-.45h2.47a.46.46,0,0,1,.5.45l1,6.77Zm-19,0,1-6.77a.54.54,0,0,1,.51-.45h2.46a.46.46,0,0,1,.51.45l1,6.77Zm-15-1.95,2.68-12.66h6.61l2.69,12.66Zm26-26.78a.45.45,0,0,1-.5-.44l-1-6.78h5.43l-1,6.78a.53.53,0,0,1-.5.44Zm.67,1.18a.56.56,0,0,1,1.12,0,3.1,3.1,0,0,1-.56,1,2.36,2.36,0,0,1-.56-1M50,38.18a3.1,3.1,0,0,1,.56,1,.56.56,0,0,1-1.12,0,3.1,3.1,0,0,1,.56-1M49.44,41a.57.57,0,0,1,.56-.56.56.56,0,0,1,.56.56A3.1,3.1,0,0,1,50,42a3.1,3.1,0,0,1-.56-1M50,43.06a3.08,3.08,0,0,1,.56,1,.56.56,0,0,1-1.12,0,3.08,3.08,0,0,1,.56-1m-.56,2.79a.56.56,0,1,1,1.12,0,3.1,3.1,0,0,1-.56,1,3.1,3.1,0,0,1-.56-1M50,47.93a3.1,3.1,0,0,1,.56,1,.56.56,0,0,1-1.12,0,3.1,3.1,0,0,1,.56-1m-.34,14.89h0a3,3,0,0,1-.11.73A2,2,0,0,1,48,61.65c0-.4.11-1.12.22-2v-.11a14.93,14.93,0,0,1,.45-1.91,10.7,10.7,0,0,1,1,4.37,4.41,4.41,0,0,1,0,.78M50,59.41a11.7,11.7,0,0,0-1.06-2.75l-.62-6.49h3.36l-.62,6.55A11.69,11.69,0,0,0,50,59.41m.45,4.2c-.06-.23-.06-.51-.11-.73s-.06-.56-.06-.84a10.88,10.88,0,0,1,.95-4.37c.17.62.34,1.29.45,1.91A12.8,12.8,0,0,1,52,61.65a2,2,0,0,1-1.51,2m14.79-1.9,2.68-12.66h6.61l2.69,12.66Z"/></svg>