<svg id="Layer_1" data-name="Layer 1" xmlns="http://www.w3.org/2000/svg" xmlns:xlink="http://www.w3.org/1999/xlink" viewBox="0 0 100 100"><defs><style>.cls-1{fill:url(#linear-gradient);}.cls-2{fill:url(#linear-gradient-7);}.cls-3{fill:url(#linear-gradient-8);}.cls-4{fill:url(#linear-gradient-9);}.cls-5{fill:url(#linear-gradient-10);}.cls-6{fill:url(#linear-gradient-11);}.cls-7{fill:url(#linear-gradient-12);}</style><linearGradient id="linear-gradient" x1="-3034.02" y1="1502.81" x2="12463.32" y2="-5821.8" gradientUnits="userSpaceOnUse"><stop offset="0" stop-color="#fcc280"/><stop offset="1" stop-color="#ab612e"/></linearGradient><linearGradient id="linear-gradient-7" x1="-861.77" y1="479.73" x2="1671.7" y2="-717.68" xlink:href="#linear-gradient"/><linearGradient id="linear-gradient-8" x1="-872.67" y1="456.65" x2="1660.8" y2="-740.76" xlink:href="#linear-gradient"/><linearGradient id="linear-gradient-9" x1="-872.13" y1="457.8" x2="1661.34" y2="-739.61" xlink:href="#linear-gradient"/><linearGradient id="linear-gradient-10" x1="-874.57" y1="452.64" x2="1658.9" y2="-744.77" xlink:href="#linear-gradient"/><linearGradient id="linear-gradient-11" x1="-858.73" y1="486.16" x2="1674.74" y2="-711.25" xlink:href="#linear-gradient"/><linearGradient id="linear-gradient-12" x1="-857.51" y1="488.73" x2="1675.95" y2="-708.68" xlink:href="#linear-gradient"/></defs><title>Fire Extinguisher</title><path class="cls-1" d="M43.39,43.75A9.42,9.42,0,0,0,34,34.35H32.34a9.42,9.42,0,0,0-9.41,9.4v26a9.42,9.42,0,0,0,9.41,9.41H34a9.42,9.42,0,0,0,9.41-9.41Zm-1.17,26A8.25,8.25,0,0,1,34,78H32.34a8.25,8.25,0,0,1-8.23-8.24v-26a8.24,8.24,0,0,1,8.23-8.23H34a8.25,8.25,0,0,1,8.24,8.23Z"/><path class="cls-1" d="M37.14,21.43a.62.62,0,0,0-.58-.59H30.23a.62.62,0,0,0-.58.59v14a.62.62,0,0,0,.58.59.63.63,0,0,0,.59-.59V22H36V35.4a.59.59,0,1,0,1.17,0Z"/><path class="cls-1" d="M43.78,24.47a.62.62,0,0,0-.59-.58H36.64a.61.61,0,0,0-.59.58V29a.62.62,0,0,0,.59.59h6.55a.63.63,0,0,0,.59-.59Zm-1.17,3.94H37.22V25.05h5.39Z"/><path class="cls-1" d="M29.61,24.51h-7a.61.61,0,0,0-.58.58v7a.62.62,0,0,0,.58.59.57.57,0,0,0,.59-.59V25.68h6.44a.59.59,0,0,0,0-1.17"/><path class="cls-1" d="M75.58,64.19a12.48,12.48,0,0,0,2.25-5.45,15.66,15.66,0,0,0-2.12-10.33l-.09-.15a1.64,1.64,0,0,1-.16-.26.69.69,0,0,0-.63-.15.48.48,0,0,0-.37.43,5.48,5.48,0,0,1,0,.55c0,.2,0,.37,0,.54-.07.85-.14,1.57-.22,2.29v.2a4.64,4.64,0,0,1-.17,1l0,.18-1.13-.22,0-.18a20.75,20.75,0,0,0,.07-5.78A16.13,16.13,0,0,0,68,37a21.12,21.12,0,0,0-9.5-5,7.07,7.07,0,0,1-.73-.16l-.71-.15-.67-.16a.44.44,0,0,0-.57.19.52.52,0,0,0-.11.58,2.37,2.37,0,0,0,.46.59l.08.08.47.51c.17.19.31.35.46.5a24.94,24.94,0,0,1,1.94,2.34,9.44,9.44,0,0,1,1.24,8.83l-.77,2L59.25,45a9.19,9.19,0,0,0-2.57-5.22.5.5,0,0,0-.66-.13.63.63,0,0,0-.3.63,9.65,9.65,0,0,1,0,3.09,10,10,0,0,1-2.56,4.89,20,20,0,0,0-3.78,6.53,8.89,8.89,0,0,0-.3,5.35,14.83,14.83,0,0,0,7.37,9.48,12.68,12.68,0,0,0,6.35,1.79,14.59,14.59,0,0,0,5.48-1.12,18.07,18.07,0,0,0,7.31-6.12m-7.87,5a11.69,11.69,0,0,1-4.91,1.12A11.92,11.92,0,0,1,57,68.7,13.89,13.89,0,0,1,50.2,60a7.32,7.32,0,0,1,.25-4.65,19.66,19.66,0,0,1,3.62-6.19,12,12,0,0,0,2.69-4.91L57.33,42l.56,2.28a14,14,0,0,1,.25,4.64.76.76,0,0,0,.38.68.5.5,0,0,0,.61-.08l.17-.2a1.18,1.18,0,0,1,.19-.24,10.68,10.68,0,0,0,.7-13.31l-.46-.57-.52-.64L58,33l1.86.6a19.76,19.76,0,0,1,7.4,4.27,14.5,14.5,0,0,1,4.48,9.19,24.49,24.49,0,0,1-.87,9.55.84.84,0,0,1,0,.17v.14l-.1.21a.72.72,0,0,0,.23.51.49.49,0,0,0,.54.1,4.77,4.77,0,0,0,2-1.32,7.67,7.67,0,0,0,1.73-3.64l.51-2.55.64,2.53a13.73,13.73,0,0,1,.32,5.71,12.73,12.73,0,0,1-2,5,16.08,16.08,0,0,1-6.88,5.74"/><path class="cls-1" d="M67.25,45.42l0-.07a.58.58,0,0,0-.5-.31.85.85,0,0,0-.22,0,.57.57,0,0,0-.28.74l0,.08a12.25,12.25,0,0,1-4.21,13.85.59.59,0,0,0-.24.37.61.61,0,0,0,.13.47.53.53,0,0,0,.46.22.33.33,0,0,0,.21-.06l0,0C70,55.14,67.77,47,67.25,45.42"/><path class="cls-2" d="M43.39,43.75A9.42,9.42,0,0,0,34,34.35H32.34a9.42,9.42,0,0,0-9.41,9.4v26a9.42,9.42,0,0,0,9.41,9.41H34a9.42,9.42,0,0,0,9.41-9.41Zm-1.17,26A8.25,8.25,0,0,1,34,78H32.34a8.25,8.25,0,0,1-8.23-8.24v-26a8.24,8.24,0,0,1,8.23-8.23H34a8.25,8.25,0,0,1,8.24,8.23Z"/><path class="cls-3" d="M37.14,21.43a.62.62,0,0,0-.58-.59H30.23a.62.62,0,0,0-.58.59v14a.62.62,0,0,0,.58.59.63.63,0,0,0,.59-.59V22H36V35.4a.59.59,0,1,0,1.17,0Z"/><path class="cls-4" d="M43.78,24.47a.62.62,0,0,0-.59-.58H36.64a.61.61,0,0,0-.59.58V29a.62.62,0,0,0,.59.59h6.55a.63.63,0,0,0,.59-.59Zm-1.17,3.94H37.22V25.05h5.39Z"/><path class="cls-5" d="M29.61,24.51h-7a.61.61,0,0,0-.58.58v7a.62.62,0,0,0,.58.59.57.57,0,0,0,.59-.59V25.68h6.44a.59.59,0,0,0,0-1.17"/><path class="cls-6" d="M75.58,64.19a12.48,12.48,0,0,0,2.25-5.45,15.66,15.66,0,0,0-2.12-10.33l-.09-.15a1.64,1.64,0,0,1-.16-.26.69.69,0,0,0-.63-.15.48.48,0,0,0-.37.43,5.48,5.48,0,0,1,0,.55c0,.2,0,.37,0,.54-.07.85-.14,1.57-.22,2.29v.2a4.64,4.64,0,0,1-.17,1l0,.18-1.13-.22,0-.18a20.75,20.75,0,0,0,.07-5.78A16.13,16.13,0,0,0,68,37a21.12,21.12,0,0,0-9.5-5,7.07,7.07,0,0,1-.73-.16l-.71-.15-.67-.16a.44.44,0,0,0-.57.19.52.52,0,0,0-.11.58,2.37,2.37,0,0,0,.46.59l.08.08.47.51c.17.19.31.35.46.5a24.94,24.94,0,0,1,1.94,2.34,9.44,9.44,0,0,1,1.24,8.83l-.77,2L59.25,45a9.19,9.19,0,0,0-2.57-5.22.5.5,0,0,0-.66-.13.63.63,0,0,0-.3.63,9.65,9.65,0,0,1,0,3.09,10,10,0,0,1-2.56,4.89,20,20,0,0,0-3.78,6.53,8.89,8.89,0,0,0-.3,5.35,14.83,14.83,0,0,0,7.37,9.48,12.68,12.68,0,0,0,6.35,1.79,14.59,14.59,0,0,0,5.48-1.12,18.07,18.07,0,0,0,7.31-6.12m-7.87,5a11.69,11.69,0,0,1-4.91,1.12A11.92,11.92,0,0,1,57,68.7,13.89,13.89,0,0,1,50.2,60a7.32,7.32,0,0,1,.25-4.65,19.66,19.66,0,0,1,3.62-6.19,12,12,0,0,0,2.69-4.91L57.33,42l.56,2.28a14,14,0,0,1,.25,4.64.76.76,0,0,0,.38.68.5.5,0,0,0,.61-.08l.17-.2a1.18,1.18,0,0,1,.19-.24,10.68,10.68,0,0,0,.7-13.31l-.46-.57-.52-.64L58,33l1.86.6a19.76,19.76,0,0,1,7.4,4.27,14.5,14.5,0,0,1,4.48,9.19,24.49,24.49,0,0,1-.87,9.55.84.84,0,0,1,0,.17v.14l-.1.21a.72.72,0,0,0,.23.51.49.49,0,0,0,.54.1,4.77,4.77,0,0,0,2-1.32,7.67,7.67,0,0,0,1.73-3.64l.51-2.55.64,2.53a13.73,13.73,0,0,1,.32,5.71,12.73,12.73,0,0,1-2,5,16.08,16.08,0,0,1-6.88,5.74"/><path class="cls-7" d="M67.25,45.42l0-.07a.58.58,0,0,0-.5-.31.85.85,0,0,0-.22,0,.57.57,0,0,0-.28.74l0,.08a12.25,12.25,0,0,1-4.21,13.85.59.59,0,0,0-.24.37.61.61,0,0,0,.13.47.53.53,0,0,0,.46.22.33.33,0,0,0,.21-.06l0,0C70,55.14,67.77,47,67.25,45.42"/></svg>