<svg id="Layer_1" data-name="Layer 1" xmlns="http://www.w3.org/2000/svg" xmlns:xlink="http://www.w3.org/1999/xlink" viewBox="0 0 100 100"><defs><style>.cls-1{fill:url(#linear-gradient);}.cls-2{fill:url(#linear-gradient-6);}.cls-3,.cls-4,.cls-5,.cls-6,.cls-7,.cls-8{fill:none;stroke-miterlimit:10;stroke-width:2.1px;}.cls-3{stroke:url(#linear-gradient-7);}.cls-4{stroke:url(#linear-gradient-8);}.cls-5{stroke:url(#linear-gradient-9);}.cls-6{stroke:url(#linear-gradient-10);}.cls-7{stroke:url(#linear-gradient-11);}.cls-8{stroke:url(#linear-gradient-12);}</style><linearGradient id="linear-gradient" x1="-3271.53" y1="1625.38" x2="13451.76" y2="-6278.66" gradientUnits="userSpaceOnUse"><stop offset="0" stop-color="#fcc280"/><stop offset="1" stop-color="#ab612e"/></linearGradient><linearGradient id="linear-gradient-6" x1="-3271.53" y1="1625.38" x2="13451.76" y2="-6278.66" gradientTransform="translate(2.05 -4.33) rotate(4.07)" xlink:href="#linear-gradient"/><linearGradient id="linear-gradient-7" x1="20.95" y1="59.94" x2="41.97" y2="59.94" xlink:href="#linear-gradient"/><linearGradient id="linear-gradient-8" x1="45.03" y1="52.95" x2="66.07" y2="52.95" xlink:href="#linear-gradient"/><linearGradient id="linear-gradient-9" x1="58.75" y1="51.98" x2="79.05" y2="51.98" xlink:href="#linear-gradient"/><linearGradient id="linear-gradient-10" x1="54" y1="76.28" x2="70.08" y2="76.28" xlink:href="#linear-gradient"/><linearGradient id="linear-gradient-11" x1="23.17" y1="42.4" x2="37.98" y2="42.4" xlink:href="#linear-gradient"/><linearGradient id="linear-gradient-12" x1="53.41" y1="26.65" x2="70.67" y2="26.65" gradientTransform="translate(2.05 -4.33) rotate(4.07)" xlink:href="#linear-gradient"/></defs><title>Height dropoff</title><rect class="cls-1" x="22" y="48.02" width="18.92" height="23.85" rx="2.26"/><path class="cls-1" d="M46.72,48.88l6.33,16.35.42,1.07L64.54,37.74H52.05C47.62,37.74,44.74,43.76,46.72,48.88Z"/><path class="cls-1" d="M72,37.74h-.72l-11,28.47H70.65l.38-1,6.33-16.35C79.34,43.76,76.46,37.74,72,37.74Z"/><path class="cls-1" d="M57.41,76.48,58,78a4.25,4.25,0,0,0,8.1,0l2.46-6.35h-13Z"/><path class="cls-1" d="M36.93,44.61V41.13a1.5,1.5,0,0,0-2.32-1.24l-8,5.27H36.93Z"/><circle class="cls-2" cx="62.04" cy="26.65" r="7.59" transform="translate(-1.73 4.47) rotate(-4.07)"/><rect class="cls-3" x="22" y="48.02" width="18.92" height="23.85" rx="2.26"/><path class="cls-4" d="M46.72,48.88l6.33,16.35.42,1.07L64.54,37.74H52.05C47.62,37.74,44.74,43.76,46.72,48.88Z"/><path class="cls-5" d="M72,37.74h-.72l-11,28.47H70.65l.38-1,6.33-16.35C79.34,43.76,76.46,37.74,72,37.74Z"/><path class="cls-6" d="M57.41,76.48,58,78a4.25,4.25,0,0,0,8.1,0l2.46-6.35h-13Z"/><path class="cls-7" d="M36.93,44.61V41.13a1.5,1.5,0,0,0-2.32-1.24l-8,5.27H36.93Z"/><circle class="cls-8" cx="62.04" cy="26.65" r="7.59" transform="translate(-1.73 4.47) rotate(-4.07)"/></svg>