<svg id="Layer_1" data-name="Layer 1" xmlns="http://www.w3.org/2000/svg" xmlns:xlink="http://www.w3.org/1999/xlink" viewBox="0 0 100 100"><defs><style>.cls-1{fill:url(#linear-gradient);}.cls-2{fill:url(#linear-gradient-8);}.cls-3{fill:url(#linear-gradient-9);}.cls-4{fill:url(#linear-gradient-10);}.cls-5{fill:url(#linear-gradient-11);}.cls-6{fill:url(#linear-gradient-12);}.cls-7{fill:url(#linear-gradient-13);}.cls-8{fill:url(#linear-gradient-14);}</style><linearGradient id="linear-gradient" x1="-3888.65" y1="1912.45" x2="15945.53" y2="-7461.91" gradientUnits="userSpaceOnUse"><stop offset="0" stop-color="#fcc280"/><stop offset="1" stop-color="#ab612e"/></linearGradient><linearGradient id="linear-gradient-8" x1="-1277.46" y1="678.31" x2="1155.25" y2="-471.48" xlink:href="#linear-gradient"/><linearGradient id="linear-gradient-9" x1="-1277.6" y1="678.02" x2="1155.11" y2="-471.77" xlink:href="#linear-gradient"/><linearGradient id="linear-gradient-10" x1="-1277.96" y1="677.24" x2="1154.74" y2="-472.54" xlink:href="#linear-gradient"/><linearGradient id="linear-gradient-11" x1="-1277.94" y1="677.3" x2="1154.77" y2="-472.49" xlink:href="#linear-gradient"/><linearGradient id="linear-gradient-12" x1="-1278.7" y1="675.68" x2="1154.01" y2="-474.1" xlink:href="#linear-gradient"/><linearGradient id="linear-gradient-13" x1="-1276.15" y1="681.08" x2="1156.56" y2="-468.7" xlink:href="#linear-gradient"/><linearGradient id="linear-gradient-14" x1="-1275.67" y1="682.1" x2="1157.04" y2="-467.69" xlink:href="#linear-gradient"/></defs><title>Layout</title><path class="cls-1" d="M52.71,78H22.9a.9.9,0,0,1-.9-.9V32.84a.9.9,0,0,1,.9-.9H44.58v-9a.9.9,0,0,1,.9-.9H77.1a.9.9,0,0,1,.9.9V69a.9.9,0,0,1-.9.9H53.61V77.1A.9.9,0,0,1,52.71,78Zm-28.9-1.81h28V69a.9.9,0,0,1,.9-.9H76.19V23.81H46.39V41a.91.91,0,0,1-1.81,0V33.74H23.81Z"/><path class="cls-1" d="M37.35,60.84H22.9a.91.91,0,0,1,0-1.81H37.35a.91.91,0,1,1,0,1.81Z"/><path class="cls-1" d="M53.56,58.14a.84.84,0,0,1-.27,0,.9.9,0,0,1-.62-.71l-.79-4.75-4.75-.79a.9.9,0,0,1-.5-1.53l17.6-17.59a2.68,2.68,0,0,1,3.81,0l3.75,3.74a2.71,2.71,0,0,1,0,3.82L54.2,57.88A.9.9,0,0,1,53.56,58.14Zm-4.41-7.79,3.66.61a.89.89,0,0,1,.74.74l.61,3.66L70.51,39a.89.89,0,0,0,0-1.26L66.77,34a.92.92,0,0,0-1.27,0Z"/><path class="cls-1" d="M52.71,52.86a.89.89,0,0,1-.64-.26.91.91,0,0,1,0-1.28L65.62,37.77a.91.91,0,1,1,1.28,1.28L53.35,52.6A.89.89,0,0,1,52.71,52.86Z"/><path class="cls-1" d="M69.33,42.38a.89.89,0,0,1-.64-.26l-4-4A.9.9,0,1,1,66,36.87l4,4a.91.91,0,0,1,0,1.28A.89.89,0,0,1,69.33,42.38Z"/><path class="cls-1" d="M44.58,60.84a.87.87,0,0,1-.64-.27.89.89,0,0,1-.22-.89l2.69-9a.89.89,0,0,1,1.12-.6.9.9,0,0,1,.61,1.12l-2.21,7.38,7.37-2.21a.9.9,0,0,1,1.13.6.91.91,0,0,1-.61,1.13l-9,2.69A.78.78,0,0,1,44.58,60.84Z"/><path class="cls-1" d="M50,59.2a.88.88,0,0,1-.64-.26l-3.77-3.77a.91.91,0,0,1,1.28-1.28l3.77,3.77a.91.91,0,0,1,0,1.28A.89.89,0,0,1,50,59.2Z"/><path class="cls-2" d="M52.71,78H22.9a.9.9,0,0,1-.9-.9V32.84a.9.9,0,0,1,.9-.9H44.58v-9a.9.9,0,0,1,.9-.9H77.1a.9.9,0,0,1,.9.9V69a.9.9,0,0,1-.9.9H53.61V77.1A.9.9,0,0,1,52.71,78Zm-28.9-1.81h28V69a.9.9,0,0,1,.9-.9H76.19V23.81H46.39V41a.91.91,0,0,1-1.81,0V33.74H23.81Z"/><path class="cls-3" d="M37.35,60.84H22.9a.91.91,0,0,1,0-1.81H37.35a.91.91,0,1,1,0,1.81Z"/><path class="cls-4" d="M53.56,58.14a.84.84,0,0,1-.27,0,.9.9,0,0,1-.62-.71l-.79-4.75-4.75-.79a.9.9,0,0,1-.5-1.53l17.6-17.59a2.68,2.68,0,0,1,3.81,0l3.75,3.74a2.71,2.71,0,0,1,0,3.82L54.2,57.88A.9.9,0,0,1,53.56,58.14Zm-4.41-7.79,3.66.61a.89.89,0,0,1,.74.74l.61,3.66L70.51,39a.89.89,0,0,0,0-1.26L66.77,34a.92.92,0,0,0-1.27,0Z"/><path class="cls-5" d="M52.71,52.86a.89.89,0,0,1-.64-.26.91.91,0,0,1,0-1.28L65.62,37.77a.91.91,0,1,1,1.28,1.28L53.35,52.6A.89.89,0,0,1,52.71,52.86Z"/><path class="cls-6" d="M69.33,42.38a.89.89,0,0,1-.64-.26l-4-4A.9.9,0,1,1,66,36.87l4,4a.91.91,0,0,1,0,1.28A.89.89,0,0,1,69.33,42.38Z"/><path class="cls-7" d="M44.58,60.84a.87.87,0,0,1-.64-.27.89.89,0,0,1-.22-.89l2.69-9a.89.89,0,0,1,1.12-.6.9.9,0,0,1,.61,1.12l-2.21,7.38,7.37-2.21a.9.9,0,0,1,1.13.6.91.91,0,0,1-.61,1.13l-9,2.69A.78.78,0,0,1,44.58,60.84Z"/><path class="cls-8" d="M50,59.2a.88.88,0,0,1-.64-.26l-3.77-3.77a.91.91,0,0,1,1.28-1.28l3.77,3.77a.91.91,0,0,1,0,1.28A.89.89,0,0,1,50,59.2Z"/></svg>