<svg id="Layer_1" data-name="Layer 1" xmlns="http://www.w3.org/2000/svg" xmlns:xlink="http://www.w3.org/1999/xlink" viewBox="0 0 100 100"><defs><style>.cls-1{fill:url(#linear-gradient);}.cls-2{fill:url(#linear-gradient-2);}.cls-3{fill:url(#linear-gradient-3);}.cls-4{fill:url(#linear-gradient-4);}.cls-5{fill:url(#linear-gradient-5);}.cls-6{fill:url(#linear-gradient-6);}.cls-7{fill:url(#linear-gradient-7);}</style><linearGradient id="linear-gradient" x1="-456.9" y1="289.58" x2="2144.97" y2="-940.16" gradientUnits="userSpaceOnUse"><stop offset="0" stop-color="#fcc280"/><stop offset="1" stop-color="#ab612e"/></linearGradient><linearGradient id="linear-gradient-2" x1="-481.17" y1="274.15" x2="2187.22" y2="-987.03" xlink:href="#linear-gradient"/><linearGradient id="linear-gradient-3" x1="-480.18" y1="276.22" x2="2188.32" y2="-985.01" xlink:href="#linear-gradient"/><linearGradient id="linear-gradient-4" x1="-479.12" y1="278.26" x2="2189.17" y2="-982.87" xlink:href="#linear-gradient"/><linearGradient id="linear-gradient-5" x1="-478.08" y1="280.31" x2="2190.09" y2="-980.76" xlink:href="#linear-gradient"/><linearGradient id="linear-gradient-6" x1="-468.65" y1="306.01" x2="2215.71" y2="-962.72" xlink:href="#linear-gradient"/><linearGradient id="linear-gradient-7" x1="-473.54" y1="295.35" x2="2210.76" y2="-973.35" xlink:href="#linear-gradient"/></defs><title>Lift</title><path class="cls-1" d="M77.43,22H22.57a.55.55,0,0,0-.57.51v55a.55.55,0,0,0,.57.52H77.43a.54.54,0,0,0,.57-.52v-55a.54.54,0,0,0-.57-.51m-28,55H23.13V31.82h26.3Zm27.44,0H50.57V31.82h26.3Zm0-46.19H23.14V23H76.87Z"/><path class="cls-2" d="M42.64,26.39h-1.4a.55.55,0,0,0-.57.52.54.54,0,0,0,.57.51h1.4a.55.55,0,0,0,.57-.51.55.55,0,0,0-.57-.52"/><path class="cls-3" d="M48,26.39h-1.4a.55.55,0,0,0-.57.52.55.55,0,0,0,.57.51H48a.55.55,0,0,0,.57-.51.55.55,0,0,0-.57-.52"/><path class="cls-4" d="M53.39,26.39H52a.55.55,0,0,0-.57.52.55.55,0,0,0,.57.51h1.4a.55.55,0,0,0,.57-.51.55.55,0,0,0-.57-.52"/><path class="cls-5" d="M58.77,26.39h-1.4a.55.55,0,0,0-.57.52.54.54,0,0,0,.57.51h1.4a.54.54,0,0,0,.56-.51.55.55,0,0,0-.56-.52"/><path class="cls-6" d="M63.72,61.26a.55.55,0,0,0,.57-.52V49.28l3.94,3.57a.65.65,0,0,0,.81,0,.5.5,0,0,0,0-.73l-4.92-4.45a.62.62,0,0,0-.81,0L58.4,52.12a.48.48,0,0,0,0,.73.63.63,0,0,0,.8,0l3.95-3.57V60.74a.55.55,0,0,0,.57.52"/><path class="cls-7" d="M36.28,47.52a.54.54,0,0,0-.56.52V59.5l-3.95-3.57a.64.64,0,0,0-.4-.15.6.6,0,0,0-.4.15.47.47,0,0,0,0,.73l4.91,4.45a.65.65,0,0,0,.81,0l4.92-4.45a.5.5,0,0,0,0-.73.65.65,0,0,0-.81,0L36.85,59.5V48a.54.54,0,0,0-.57-.52"/></svg>