<svg id="Layer_1" data-name="Layer 1" xmlns="http://www.w3.org/2000/svg" xmlns:xlink="http://www.w3.org/1999/xlink" viewBox="0 0 100 100"><defs><style>.cls-1{fill:url(#linear-gradient);}.cls-2{fill:url(#linear-gradient-6);}.cls-3{fill:url(#linear-gradient-7);}.cls-4{fill:url(#linear-gradient-8);}.cls-5{fill:url(#linear-gradient-9);}.cls-6{fill:url(#linear-gradient-10);}</style><linearGradient id="linear-gradient" x1="-3123.98" y1="1552.54" x2="12889.47" y2="-6016" gradientUnits="userSpaceOnUse"><stop offset="0" stop-color="#fcc280"/><stop offset="1" stop-color="#ab612e"/></linearGradient><linearGradient id="linear-gradient-6" x1="-1242.61" y1="650.27" x2="1190.1" y2="-499.52" xlink:href="#linear-gradient"/><linearGradient id="linear-gradient-7" x1="-1242.19" y1="651.17" x2="1190.52" y2="-498.62" xlink:href="#linear-gradient"/><linearGradient id="linear-gradient-8" x1="-1235.51" y1="665.3" x2="1197.2" y2="-484.49" xlink:href="#linear-gradient"/><linearGradient id="linear-gradient-9" x1="-1246.86" y1="641.27" x2="1185.84" y2="-508.51" xlink:href="#linear-gradient"/><linearGradient id="linear-gradient-10" x1="-1232.74" y1="671.16" x2="1199.97" y2="-478.63" xlink:href="#linear-gradient"/></defs><title>Multiple Entry</title><path class="cls-1" d="M45.92,48.25H23.75a1.75,1.75,0,0,1,0-3.5H45.92a1.75,1.75,0,0,1,0,3.5Z"/><path class="cls-1" d="M37.17,57a1.75,1.75,0,0,1-1.24-3l7.51-7.51L35.93,39a1.75,1.75,0,0,1,2.48-2.48l8.75,8.75a1.76,1.76,0,0,1,0,2.48l-8.75,8.75A1.78,1.78,0,0,1,37.17,57Z"/><path class="cls-1" d="M59.33,78a4.67,4.67,0,0,1-4.66-4.67v-42a4.7,4.7,0,0,1,3.16-4.43l14-4.67A4.72,4.72,0,0,1,78,26.67v42a4.7,4.7,0,0,1-3.16,4.43l-14,4.67A4.82,4.82,0,0,1,59.33,78Zm14-52.5a1.35,1.35,0,0,0-.41.06L59,30.22a1.19,1.19,0,0,0-.79,1.11v42a1.22,1.22,0,0,0,1.58,1.11l14-4.66a1.19,1.19,0,0,0,.79-1.11v-42A1.17,1.17,0,0,0,73.33,25.5Z"/><path class="cls-1" d="M42.42,33.67a1.75,1.75,0,0,1-1.75-1.75v-3.5A6.42,6.42,0,0,1,47.08,22H73.33a1.75,1.75,0,0,1,0,3.5H47.08a2.92,2.92,0,0,0-2.91,2.92v3.5A1.76,1.76,0,0,1,42.42,33.67Z"/><path class="cls-1" d="M56.42,71H47.08a6.42,6.42,0,0,1-6.41-6.42v-3.5a1.75,1.75,0,0,1,3.5,0v3.5a2.92,2.92,0,0,0,2.91,2.92h9.34a1.75,1.75,0,0,1,0,3.5Z"/><path class="cls-2" d="M45.92,48.25H23.75a1.75,1.75,0,0,1,0-3.5H45.92a1.75,1.75,0,0,1,0,3.5Z"/><path class="cls-3" d="M37.17,57a1.75,1.75,0,0,1-1.24-3l7.51-7.51L35.93,39a1.75,1.75,0,0,1,2.48-2.48l8.75,8.75a1.76,1.76,0,0,1,0,2.48l-8.75,8.75A1.78,1.78,0,0,1,37.17,57Z"/><path class="cls-4" d="M59.33,78a4.67,4.67,0,0,1-4.66-4.67v-42a4.7,4.7,0,0,1,3.16-4.43l14-4.67A4.72,4.72,0,0,1,78,26.67v42a4.7,4.7,0,0,1-3.16,4.43l-14,4.67A4.82,4.82,0,0,1,59.33,78Zm14-52.5a1.35,1.35,0,0,0-.41.06L59,30.22a1.19,1.19,0,0,0-.79,1.11v42a1.22,1.22,0,0,0,1.58,1.11l14-4.66a1.19,1.19,0,0,0,.79-1.11v-42A1.17,1.17,0,0,0,73.33,25.5Z"/><path class="cls-5" d="M42.42,33.67a1.75,1.75,0,0,1-1.75-1.75v-3.5A6.42,6.42,0,0,1,47.08,22H73.33a1.75,1.75,0,0,1,0,3.5H47.08a2.92,2.92,0,0,0-2.91,2.92v3.5A1.76,1.76,0,0,1,42.42,33.67Z"/><path class="cls-6" d="M56.42,71H47.08a6.42,6.42,0,0,1-6.41-6.42v-3.5a1.75,1.75,0,0,1,3.5,0v3.5a2.92,2.92,0,0,0,2.91,2.92h9.34a1.75,1.75,0,0,1,0,3.5Z"/></svg>