<svg id="Layer_1" data-name="Layer 1" xmlns="http://www.w3.org/2000/svg" xmlns:xlink="http://www.w3.org/1999/xlink" viewBox="0 0 100 100"><defs><style>.cls-1{fill:url(#linear-gradient);}.cls-2{fill:#d7945a;}</style><linearGradient id="linear-gradient" x1="-3889.98" y1="1912.18" x2="15949.15" y2="-7464.52" gradientUnits="userSpaceOnUse"><stop offset="0" stop-color="#fcc280"/><stop offset="1" stop-color="#ab612e"/></linearGradient></defs><title>Open Area</title><path class="cls-1" d="M63.37,40.14l.3-2.57L51.24,50,63.67,62.43l-.3-2.57a.88.88,0,0,1,.76-1,.89.89,0,0,1,1,.77l.6,5.08a.89.89,0,0,1-.25.73.9.9,0,0,1-.62.25h-.11l-5.08-.6a.89.89,0,0,1-.77-1,.88.88,0,0,1,1-.76l2.57.3L50,51.24,37.57,63.67l2.57-.3a.88.88,0,0,1,1,.76.89.89,0,0,1-.77,1l-5.08.6h-.11a.9.9,0,0,1-.62-.25.93.93,0,0,1-.25-.73l.61-5.08a.87.87,0,1,1,1.73.21l-.3,2.57L48.76,50,36.33,37.57l.3,2.57a.88.88,0,0,1-.76,1h-.11a.89.89,0,0,1-.87-.77l-.6-5.08a.89.89,0,0,1,.25-.73.93.93,0,0,1,.73-.25l5.08.61a.87.87,0,1,1-.21,1.73l-2.57-.3L50,48.76,62.43,36.33l-2.57.3a.88.88,0,0,1-1-.76.89.89,0,0,1,.77-1l5.08-.6a.88.88,0,0,1,1,1l-.6,5.08a.89.89,0,0,1-.87.77h-.11a.88.88,0,0,1-.76-1ZM31.13,22.87v7.38a.87.87,0,0,1-.88.88H22.88a.87.87,0,0,1-.88-.88V22.87a.87.87,0,0,1,.88-.87h7.37A.87.87,0,0,1,31.13,22.87Zm-1.75.88H23.75v5.63h5.63Zm1.75,46v7.38a.87.87,0,0,1-.88.87H22.88a.87.87,0,0,1-.88-.87V69.75a.87.87,0,0,1,.88-.88h7.37A.87.87,0,0,1,31.13,69.75Zm-1.75.87H23.75v5.63h5.63ZM78,22.87v7.38a.87.87,0,0,1-.88.88H69.75a.87.87,0,0,1-.88-.88V22.87a.87.87,0,0,1,.88-.87h7.37A.87.87,0,0,1,78,22.87Zm-1.75.88H70.62v5.63h5.63Zm1.75,46v7.38a.87.87,0,0,1-.88.87H69.75a.87.87,0,0,1-.88-.87V69.75a.87.87,0,0,1,.88-.88h7.37A.87.87,0,0,1,78,69.75Zm-1.75.87H70.62v5.63h5.63ZM33.76,27.44h3.69a.88.88,0,1,0,0-1.75H33.76a.88.88,0,0,0,0,1.75Zm7.2,0h3.69a.88.88,0,0,0,0-1.75H41a.88.88,0,1,0,0,1.75Zm7.2,0h3.68a.88.88,0,1,0,0-1.75H48.16a.88.88,0,1,0,0,1.75Zm7.19,0H59a.88.88,0,1,0,0-1.75H55.35a.88.88,0,0,0,0,1.75Zm10.89-1.75H62.55a.88.88,0,1,0,0,1.75h3.69a.88.88,0,0,0,0-1.75ZM37.45,72.56H33.76a.88.88,0,0,0,0,1.75h3.69a.88.88,0,1,0,0-1.75Zm7.2,0H41a.88.88,0,1,0,0,1.75h3.69a.88.88,0,0,0,0-1.75Zm7.19,0H48.16a.88.88,0,1,0,0,1.75h3.68a.88.88,0,1,0,0-1.75Zm7.2,0H55.35a.88.88,0,0,0,0,1.75H59a.88.88,0,1,0,0-1.75Zm7.2,0H62.55a.88.88,0,1,0,0,1.75h3.69a.88.88,0,0,0,0-1.75Zm7.2-34.23a.88.88,0,0,0,.87-.88V33.76a.88.88,0,0,0-1.75,0v3.69A.88.88,0,0,0,73.44,38.33Zm-.88,6.32a.88.88,0,0,0,1.75,0V41a.88.88,0,1,0-1.75,0Zm0,7.19a.88.88,0,1,0,1.75,0V48.16a.88.88,0,1,0-1.75,0Zm0,7.2a.88.88,0,1,0,1.75,0V55.35a.88.88,0,0,0-1.75,0Zm0,7.2a.88.88,0,0,0,1.75,0V62.55a.88.88,0,1,0-1.75,0Zm-46-27.91a.88.88,0,0,0,.88-.88V33.76a.88.88,0,0,0-1.75,0v3.69A.88.88,0,0,0,26.56,38.33Zm-.87,6.32a.88.88,0,0,0,1.75,0V41a.88.88,0,1,0-1.75,0Zm0,7.19a.88.88,0,1,0,1.75,0V48.16a.88.88,0,1,0-1.75,0Zm0,7.2a.88.88,0,1,0,1.75,0V55.35a.88.88,0,0,0-1.75,0Zm0,7.2a.88.88,0,0,0,1.75,0V62.55a.88.88,0,1,0-1.75,0Z"/><path class="cls-2" d="M63.37,40.14l.3-2.57L51.24,50,63.67,62.43l-.3-2.57a.88.88,0,0,1,.76-1,.89.89,0,0,1,1,.77l.6,5.08a.89.89,0,0,1-.25.73.9.9,0,0,1-.62.25h-.11l-5.08-.6a.89.89,0,0,1-.77-1,.88.88,0,0,1,1-.76l2.57.3L50,51.24,37.57,63.67l2.57-.3a.88.88,0,0,1,1,.76.89.89,0,0,1-.77,1l-5.08.6h-.11a.9.9,0,0,1-.62-.25.93.93,0,0,1-.25-.73l.61-5.08a.87.87,0,1,1,1.73.21l-.3,2.57L48.76,50,36.33,37.57l.3,2.57a.88.88,0,0,1-.76,1h-.11a.89.89,0,0,1-.87-.77l-.6-5.08a.89.89,0,0,1,.25-.73.93.93,0,0,1,.73-.25l5.08.61a.87.87,0,1,1-.21,1.73l-2.57-.3L50,48.76,62.43,36.33l-2.57.3a.88.88,0,0,1-1-.76.89.89,0,0,1,.77-1l5.08-.6a.88.88,0,0,1,1,1l-.6,5.08a.89.89,0,0,1-.87.77h-.11a.88.88,0,0,1-.76-1ZM31.13,22.87v7.38a.87.87,0,0,1-.88.88H22.88a.87.87,0,0,1-.88-.88V22.87a.87.87,0,0,1,.88-.87h7.37A.87.87,0,0,1,31.13,22.87Zm-1.75.88H23.75v5.63h5.63Zm1.75,46v7.38a.87.87,0,0,1-.88.87H22.88a.87.87,0,0,1-.88-.87V69.75a.87.87,0,0,1,.88-.88h7.37A.87.87,0,0,1,31.13,69.75Zm-1.75.87H23.75v5.63h5.63ZM78,22.87v7.38a.87.87,0,0,1-.88.88H69.75a.87.87,0,0,1-.88-.88V22.87a.87.87,0,0,1,.88-.87h7.37A.87.87,0,0,1,78,22.87Zm-1.75.88H70.62v5.63h5.63Zm1.75,46v7.38a.87.87,0,0,1-.88.87H69.75a.87.87,0,0,1-.88-.87V69.75a.87.87,0,0,1,.88-.88h7.37A.87.87,0,0,1,78,69.75Zm-1.75.87H70.62v5.63h5.63ZM33.76,27.44h3.69a.88.88,0,1,0,0-1.75H33.76a.88.88,0,0,0,0,1.75Zm7.2,0h3.69a.88.88,0,0,0,0-1.75H41a.88.88,0,1,0,0,1.75Zm7.2,0h3.68a.88.88,0,1,0,0-1.75H48.16a.88.88,0,1,0,0,1.75Zm7.19,0H59a.88.88,0,1,0,0-1.75H55.35a.88.88,0,0,0,0,1.75Zm10.89-1.75H62.55a.88.88,0,1,0,0,1.75h3.69a.88.88,0,0,0,0-1.75ZM37.45,72.56H33.76a.88.88,0,0,0,0,1.75h3.69a.88.88,0,1,0,0-1.75Zm7.2,0H41a.88.88,0,1,0,0,1.75h3.69a.88.88,0,0,0,0-1.75Zm7.19,0H48.16a.88.88,0,1,0,0,1.75h3.68a.88.88,0,1,0,0-1.75Zm7.2,0H55.35a.88.88,0,0,0,0,1.75H59a.88.88,0,1,0,0-1.75Zm7.2,0H62.55a.88.88,0,1,0,0,1.75h3.69a.88.88,0,0,0,0-1.75Zm7.2-34.23a.88.88,0,0,0,.87-.88V33.76a.88.88,0,0,0-1.75,0v3.69A.88.88,0,0,0,73.44,38.33Zm-.88,6.32a.88.88,0,0,0,1.75,0V41a.88.88,0,1,0-1.75,0Zm0,7.19a.88.88,0,1,0,1.75,0V48.16a.88.88,0,1,0-1.75,0Zm0,7.2a.88.88,0,1,0,1.75,0V55.35a.88.88,0,0,0-1.75,0Zm0,7.2a.88.88,0,0,0,1.75,0V62.55a.88.88,0,1,0-1.75,0Zm-46-27.91a.88.88,0,0,0,.88-.88V33.76a.88.88,0,0,0-1.75,0v3.69A.88.88,0,0,0,26.56,38.33Zm-.87,6.32a.88.88,0,0,0,1.75,0V41a.88.88,0,1,0-1.75,0Zm0,7.19a.88.88,0,1,0,1.75,0V48.16a.88.88,0,1,0-1.75,0Zm0,7.2a.88.88,0,1,0,1.75,0V55.35a.88.88,0,0,0-1.75,0Zm0,7.2a.88.88,0,0,0,1.75,0V62.55a.88.88,0,1,0-1.75,0Z"/></svg>