<svg id="Layer_1" data-name="Layer 1" xmlns="http://www.w3.org/2000/svg" xmlns:xlink="http://www.w3.org/1999/xlink" viewBox="0 0 100 100"><defs><style>.cls-1{fill:url(#linear-gradient);}.cls-2{fill:url(#linear-gradient-6);}.cls-3{fill:url(#linear-gradient-7);}.cls-4{fill:url(#linear-gradient-8);}.cls-5{fill:url(#linear-gradient-9);}.cls-6{fill:url(#linear-gradient-10);}</style><linearGradient id="linear-gradient" x1="-2838.13" y1="1416.87" x2="11701.35" y2="-5455.02" gradientUnits="userSpaceOnUse"><stop offset="0" stop-color="#fcc280"/><stop offset="1" stop-color="#ab612e"/></linearGradient><linearGradient id="linear-gradient-6" x1="-476.21" y1="310.97" x2="1145.6" y2="-455.56" xlink:href="#linear-gradient"/><linearGradient id="linear-gradient-7" x1="-480.24" y1="302.44" x2="1141.57" y2="-464.08" xlink:href="#linear-gradient"/><linearGradient id="linear-gradient-8" x1="-474.79" y1="313.97" x2="1147.02" y2="-452.56" xlink:href="#linear-gradient"/><linearGradient id="linear-gradient-9" x1="-480.83" y1="301.2" x2="1140.98" y2="-465.33" xlink:href="#linear-gradient"/><linearGradient id="linear-gradient-10" x1="-480.78" y1="301.3" x2="1141.03" y2="-465.23" xlink:href="#linear-gradient"/></defs><title>Podium</title><path class="cls-1" d="M72.51,54.07c-.74,0-1.12-1.23-1.12-2.44s.38-2.45,1.12-2.45,1.12,1.26,1.12,2.45S73.23,54.07,72.51,54.07Zm-.19-4.37a3,3,0,0,0-.5,1.93,2.94,2.94,0,0,0,.5,1.92l.19.17.18-.17a2.91,2.91,0,0,0,.51-1.92,2.93,2.93,0,0,0-.51-1.93l-.18-.17Z"/><path class="cls-1" d="M66.51,63.13a5,5,0,0,1-5-4.51l0-.24H38.45l0,.24a5,5,0,0,1-9.95,0l0-.24H22.69c-.39,0-.69-.39-.69-.89V55.61a.81.81,0,0,1,.65-.88h.25v-.25A11.45,11.45,0,0,1,24.15,50a24,24,0,0,1,21.7-13.1h6.32c2.73,0,3.83,1.23,3.84,1.24l6.5,7.49,12.62.64.09,0A2.75,2.75,0,0,1,77.55,49v5.79l.11.08a.94.94,0,0,1,.34.76v1.88c0,.5-.3.89-.69.89H71.5l0,.24A5,5,0,0,1,66.51,63.13Zm0-9.57a4.57,4.57,0,1,0,4.57,4.57A4.58,4.58,0,0,0,66.51,53.56Zm-33.06,0A4.57,4.57,0,1,0,38,58.13,4.58,4.58,0,0,0,33.45,53.56ZM74.68,58h2.73l.08-.13a.7.7,0,0,0,.08-.33V55.61a.69.69,0,0,0-.08-.32l-.08-.13H74.68Zm-8.17-4.82a5,5,0,0,1,5,4.58l0,.24h2.74V54.73h.31V51.16c0-2.23-2.37-3.56-4.67-3.56H68.22c-.88,0-5.1.13-7.87,2.83a8.92,8.92,0,0,0-2.52,6.68V58h3.68l0-.25A5,5,0,0,1,66.51,53.13ZM55.29,58H57.4v-.84a9.31,9.31,0,0,1,2.66-7A9,9,0,0,1,62,48.69l.15-.08-.09-2.76H43.92l-.1,10.77c.07.39.11.73.14,1.08l0,.25H55.29ZM33.45,53.13a5,5,0,0,1,5,4.56l0,.25h5.11l0-.3c-.43-4.31-3.87-8.9-9.42-8.9a9.42,9.42,0,0,0-9.43,8.88v.29h3.79l0-.24A5,5,0,0,1,33.45,53.13ZM22.51,55.29a.63.63,0,0,0-.08.32v1.83a.64.64,0,0,0,.08.33l.08.13h1.67v-.25a9.55,9.55,0,0,1,.34-2.15l.1-.34H22.59ZM75,54.73h2.13v-1H76v-.43h1.09V51.72H76v-.43h1.09V49.76H76v-.43h1.09v-.27a2.37,2.37,0,0,0-1.8-2.35L75,46.64Zm-47.7-8.79a25.89,25.89,0,0,0-2.76,4.23,10.93,10.93,0,0,0-1.2,4.29v.27h1.53l.07-.17a9.8,9.8,0,0,1,18-.66l.51-.12.07-7.94H27.37Zm42.6,1.23a5.74,5.74,0,0,1,4.2,1.7l.47.52V46.64L62.49,46l.07,2.37.36-.16a13.59,13.59,0,0,1,5.14-1.06Zm-24-9.87c-.46,0-1,0-1.6.05l-.25,0-.07,8H61.79l-6.1-7s-1-1.09-3.52-1.09Zm-2.58.14a24.61,24.61,0,0,0-8.07,2.23l-.1,0-2,5.69H43.5l.07-8Zm-9.33,2.88A22.47,22.47,0,0,0,28.12,45l-.4.45h5L34.56,40Z"/><path class="cls-1" d="M66.51,61a2.84,2.84,0,1,1,2.83-2.84A2.84,2.84,0,0,1,66.51,61Zm0-5.25a2.41,2.41,0,1,0,2.41,2.41A2.41,2.41,0,0,0,66.51,55.72Z"/><path class="cls-1" d="M33.45,61a2.84,2.84,0,1,1,2.84-2.84A2.84,2.84,0,0,1,33.45,61Zm0-5.25a2.41,2.41,0,1,0,2.41,2.41A2.41,2.41,0,0,0,33.45,55.72Z"/><path class="cls-1" d="M57.08,46.75H55.71a1,1,0,0,0-1,1h3.3A1,1,0,0,0,57.08,46.75Z"/><path class="cls-2" d="M72.51,54.07c-.74,0-1.12-1.23-1.12-2.44s.38-2.45,1.12-2.45,1.12,1.26,1.12,2.45S73.23,54.07,72.51,54.07Zm-.19-4.37a3,3,0,0,0-.5,1.93,2.94,2.94,0,0,0,.5,1.92l.19.17.18-.17a2.91,2.91,0,0,0,.51-1.92,2.93,2.93,0,0,0-.51-1.93l-.18-.17Z"/><path class="cls-3" d="M66.51,63.13a5,5,0,0,1-5-4.51l0-.24H38.45l0,.24a5,5,0,0,1-9.95,0l0-.24H22.69c-.39,0-.69-.39-.69-.89V55.61a.81.81,0,0,1,.65-.88h.25v-.25A11.45,11.45,0,0,1,24.15,50a24,24,0,0,1,21.7-13.1h6.32c2.73,0,3.83,1.23,3.84,1.24l6.5,7.49,12.62.64.09,0A2.75,2.75,0,0,1,77.55,49v5.79l.11.08a.94.94,0,0,1,.34.76v1.88c0,.5-.3.89-.69.89H71.5l0,.24A5,5,0,0,1,66.51,63.13Zm0-9.57a4.57,4.57,0,1,0,4.57,4.57A4.58,4.58,0,0,0,66.51,53.56Zm-33.06,0A4.57,4.57,0,1,0,38,58.13,4.58,4.58,0,0,0,33.45,53.56ZM74.68,58h2.73l.08-.13a.7.7,0,0,0,.08-.33V55.61a.69.69,0,0,0-.08-.32l-.08-.13H74.68Zm-8.17-4.82a5,5,0,0,1,5,4.58l0,.24h2.74V54.73h.31V51.16c0-2.23-2.37-3.56-4.67-3.56H68.22c-.88,0-5.1.13-7.87,2.83a8.92,8.92,0,0,0-2.52,6.68V58h3.68l0-.25A5,5,0,0,1,66.51,53.13ZM55.29,58H57.4v-.84a9.31,9.31,0,0,1,2.66-7A9,9,0,0,1,62,48.69l.15-.08-.09-2.76H43.92l-.1,10.77c.07.39.11.73.14,1.08l0,.25H55.29ZM33.45,53.13a5,5,0,0,1,5,4.56l0,.25h5.11l0-.3c-.43-4.31-3.87-8.9-9.42-8.9a9.42,9.42,0,0,0-9.43,8.88v.29h3.79l0-.24A5,5,0,0,1,33.45,53.13ZM22.51,55.29a.63.63,0,0,0-.08.32v1.83a.64.64,0,0,0,.08.33l.08.13h1.67v-.25a9.55,9.55,0,0,1,.34-2.15l.1-.34H22.59ZM75,54.73h2.13v-1H76v-.43h1.09V51.72H76v-.43h1.09V49.76H76v-.43h1.09v-.27a2.37,2.37,0,0,0-1.8-2.35L75,46.64Zm-47.7-8.79a25.89,25.89,0,0,0-2.76,4.23,10.93,10.93,0,0,0-1.2,4.29v.27h1.53l.07-.17a9.8,9.8,0,0,1,18-.66l.51-.12.07-7.94H27.37Zm42.6,1.23a5.74,5.74,0,0,1,4.2,1.7l.47.52V46.64L62.49,46l.07,2.37.36-.16a13.59,13.59,0,0,1,5.14-1.06Zm-24-9.87c-.46,0-1,0-1.6.05l-.25,0-.07,8H61.79l-6.1-7s-1-1.09-3.52-1.09Zm-2.58.14a24.61,24.61,0,0,0-8.07,2.23l-.1,0-2,5.69H43.5l.07-8Zm-9.33,2.88A22.47,22.47,0,0,0,28.12,45l-.4.45h5L34.56,40Z"/><path class="cls-4" d="M66.51,61a2.84,2.84,0,1,1,2.83-2.84A2.84,2.84,0,0,1,66.51,61Zm0-5.25a2.41,2.41,0,1,0,2.41,2.41A2.41,2.41,0,0,0,66.51,55.72Z"/><path class="cls-5" d="M33.45,61a2.84,2.84,0,1,1,2.84-2.84A2.84,2.84,0,0,1,33.45,61Zm0-5.25a2.41,2.41,0,1,0,2.41,2.41A2.41,2.41,0,0,0,33.45,55.72Z"/><path class="cls-6" d="M57.08,46.75H55.71a1,1,0,0,0-1,1h3.3A1,1,0,0,0,57.08,46.75Z"/></svg>