<svg id="Layer_1" data-name="Layer 1" xmlns="http://www.w3.org/2000/svg" xmlns:xlink="http://www.w3.org/1999/xlink" viewBox="0 0 100 100"><defs><style>.cls-1{fill:url(#linear-gradient);}.cls-2{fill:url(#linear-gradient-2);}</style><linearGradient id="linear-gradient" x1="-2617.72" y1="1308.66" x2="10816.92" y2="-5041.05" gradientUnits="userSpaceOnUse"><stop offset="0" stop-color="#fcc280"/><stop offset="1" stop-color="#ab612e"/></linearGradient><linearGradient id="linear-gradient-2" x1="-1674.06" y1="862.65" x2="758.44" y2="-287.04" xlink:href="#linear-gradient"/></defs><title>Private Toilets</title><path class="cls-1" d="M77.84,47.2a2.8,2.8,0,0,0-2.64-1.87H42.53a.94.94,0,0,0-.93.94v2.8H39.73V36h.93a2.8,2.8,0,0,0,0-5.6h-.93V27.6h.93a.94.94,0,0,0,.94-.93V22.94a.94.94,0,0,0-.94-.94H22.93a.94.94,0,0,0-.93.94v3.73a.93.93,0,0,0,.93.93h.94V50a.92.92,0,0,0,.93.93h.93c.3,6,3.46,8.51,6.26,10.73,3.54,2.8,6.88,5.44,4.93,15.22a.93.93,0,0,0,.73,1.1l.21,0H67.73a.94.94,0,0,0,.93-.94.88.88,0,0,0-.13-.47c-2.67-4.44-2.67-8.06-2.67-13.52,5.73-1.87,9.87-6.66,10.27-12.3A2.8,2.8,0,0,0,77.84,47.2ZM40.67,32.27a.93.93,0,0,1,0,1.86h-.94V32.27Zm-16.8-6.53V23.87H39.73v1.87Zm1.86,1.86H37.87V49.07H25.73ZM39,76.13c1.68-10-2.12-13.06-5.79-15.94-2.74-2.14-5.29-4.16-5.6-9.26H40.67c.42,5.6,4.53,10.27,10.2,12.14,0,5.26,0,8.81-2.4,13.06Zm27.16,0H50.64C52.71,72,52.8,68.35,52.8,63.59a17.91,17.91,0,0,0,3.73.41h3.73A18.08,18.08,0,0,0,64,63.59C64,68.35,64.07,72,66.15,76.13Zm-5.89-14H56.53c-7.35,0-13.39-4.94-13.94-11.2H74.21C73.66,57.19,67.62,62.13,60.26,62.13ZM75.2,49.07H43.46V47.2H75.2a.94.94,0,0,1,0,1.87Z"/><path class="cls-2" d="M77.84,47.2a2.8,2.8,0,0,0-2.64-1.87H42.53a.94.94,0,0,0-.93.94v2.8H39.73V36h.93a2.8,2.8,0,0,0,0-5.6h-.93V27.6h.93a.94.94,0,0,0,.94-.93V22.94a.94.94,0,0,0-.94-.94H22.93a.94.94,0,0,0-.93.94v3.73a.93.93,0,0,0,.93.93h.94V50a.92.92,0,0,0,.93.93h.93c.3,6,3.46,8.51,6.26,10.73,3.54,2.8,6.88,5.44,4.93,15.22a.93.93,0,0,0,.73,1.1l.21,0H67.73a.94.94,0,0,0,.93-.94.88.88,0,0,0-.13-.47c-2.67-4.44-2.67-8.06-2.67-13.52,5.73-1.87,9.87-6.66,10.27-12.3A2.8,2.8,0,0,0,77.84,47.2ZM40.67,32.27a.93.93,0,0,1,0,1.86h-.94V32.27Zm-16.8-6.53V23.87H39.73v1.87Zm1.86,1.86H37.87V49.07H25.73ZM39,76.13c1.68-10-2.12-13.06-5.79-15.94-2.74-2.14-5.29-4.16-5.6-9.26H40.67c.42,5.6,4.53,10.27,10.2,12.14,0,5.26,0,8.81-2.4,13.06Zm27.16,0H50.64C52.71,72,52.8,68.35,52.8,63.59a17.91,17.91,0,0,0,3.73.41h3.73A18.08,18.08,0,0,0,64,63.59C64,68.35,64.07,72,66.15,76.13Zm-5.89-14H56.53c-7.35,0-13.39-4.94-13.94-11.2H74.21C73.66,57.19,67.62,62.13,60.26,62.13ZM75.2,49.07H43.46V47.2H75.2a.94.94,0,0,1,0,1.87Z"/></svg>