<svg id="Layer_1" data-name="Layer 1" xmlns="http://www.w3.org/2000/svg" xmlns:xlink="http://www.w3.org/1999/xlink" viewBox="0 0 100 100"><defs><style>.cls-1{fill:url(#linear-gradient);}.cls-10,.cls-11,.cls-12,.cls-13,.cls-14,.cls-15,.cls-2,.cls-3,.cls-4,.cls-5,.cls-6,.cls-7,.cls-8,.cls-9{fill-rule:evenodd;}.cls-2{fill:url(#linear-gradient-15);}.cls-3{fill:url(#linear-gradient-16);}.cls-4{fill:url(#linear-gradient-17);}.cls-5{fill:url(#linear-gradient-18);}.cls-6{fill:url(#linear-gradient-19);}.cls-7{fill:url(#linear-gradient-20);}.cls-8{fill:url(#linear-gradient-21);}.cls-9{fill:url(#linear-gradient-22);}.cls-10{fill:url(#linear-gradient-23);}.cls-11{fill:url(#linear-gradient-24);}.cls-12{fill:url(#linear-gradient-25);}.cls-13{fill:url(#linear-gradient-26);}.cls-14{fill:url(#linear-gradient-27);}.cls-15{fill:url(#linear-gradient-28);}</style><linearGradient id="linear-gradient" x1="-3712.32" y1="1828.21" x2="15232.23" y2="-7125.68" gradientUnits="userSpaceOnUse"><stop offset="0" stop-color="#fcc280"/><stop offset="1" stop-color="#ab612e"/></linearGradient><linearGradient id="linear-gradient-15" x1="-1020.65" y1="546.67" x2="1124.9" y2="-467.39" xlink:href="#linear-gradient"/><linearGradient id="linear-gradient-16" x1="-1012.53" y1="563.85" x2="1133.01" y2="-450.21" xlink:href="#linear-gradient"/><linearGradient id="linear-gradient-17" x1="-1017.51" y1="553.33" x2="1128.04" y2="-460.74" xlink:href="#linear-gradient"/><linearGradient id="linear-gradient-18" x1="-1017.14" y1="554.1" x2="1128.41" y2="-459.96" xlink:href="#linear-gradient"/><linearGradient id="linear-gradient-19" x1="-1022.08" y1="543.65" x2="1123.46" y2="-470.42" xlink:href="#linear-gradient"/><linearGradient id="linear-gradient-20" x1="-1013.74" y1="561.29" x2="1131.8" y2="-452.77" xlink:href="#linear-gradient"/><linearGradient id="linear-gradient-21" x1="-1013.94" y1="560.87" x2="1131.6" y2="-453.2" xlink:href="#linear-gradient"/><linearGradient id="linear-gradient-22" x1="-1005.72" y1="578.26" x2="1139.82" y2="-435.8" xlink:href="#linear-gradient"/><linearGradient id="linear-gradient-23" x1="-1006.99" y1="575.57" x2="1138.55" y2="-438.49" xlink:href="#linear-gradient"/><linearGradient id="linear-gradient-24" x1="-1028.35" y1="530.38" x2="1117.2" y2="-483.68" xlink:href="#linear-gradient"/><linearGradient id="linear-gradient-25" x1="-1027.08" y1="533.07" x2="1118.47" y2="-480.99" xlink:href="#linear-gradient"/><linearGradient id="linear-gradient-26" x1="-1020.33" y1="547.35" x2="1125.22" y2="-466.71" xlink:href="#linear-gradient"/><linearGradient id="linear-gradient-27" x1="-1020.13" y1="547.78" x2="1125.42" y2="-466.29" xlink:href="#linear-gradient"/><linearGradient id="linear-gradient-28" x1="-1014.99" y1="558.66" x2="1130.56" y2="-455.41" xlink:href="#linear-gradient"/></defs><title>Refugee Area</title><path class="cls-1" d="M50,37.74a2.91,2.91,0,1,0,2.91,2.9A2.9,2.9,0,0,0,50,37.74Zm-6.2,2.9A6.2,6.2,0,1,1,50,46.85,6.2,6.2,0,0,1,43.8,40.64Z"/><path class="cls-1" d="M55.57,50.62a6.94,6.94,0,0,1,4.3-1.49h5.31a7,7,0,0,1,7,7v2.66A1.64,1.64,0,0,1,70.5,60.4h-16V57.1h14.3v-1a3.66,3.66,0,0,0-3.67-3.66H59.87a3.62,3.62,0,0,0-2.26.78Z"/><path class="cls-1" d="M62.53,40.53a2.34,2.34,0,1,0,2.33,2.33A2.33,2.33,0,0,0,62.53,40.53Zm-5.64,2.33a5.64,5.64,0,1,1,5.64,5.64A5.64,5.64,0,0,1,56.89,42.86Z"/><path class="cls-1" d="M27.86,56.09a7,7,0,0,1,7-7h5.31a6.94,6.94,0,0,1,4.3,1.49l-2,2.59a3.62,3.62,0,0,0-2.26-.78H34.82a3.66,3.66,0,0,0-3.67,3.66v1h14.3v3.3h-16a1.64,1.64,0,0,1-1.64-1.65Z"/><path class="cls-1" d="M37.47,40.52a2.34,2.34,0,1,0,2.34,2.34A2.33,2.33,0,0,0,37.47,40.52Zm-5.63,2.34a5.64,5.64,0,1,1,5.63,5.63A5.63,5.63,0,0,1,31.84,42.86Z"/><path class="cls-1" d="M33.63,63.64A1.64,1.64,0,0,1,33.56,66l-8.78,8.29a1.65,1.65,0,1,1-2.26-2.4l8.78-8.28A1.64,1.64,0,0,1,33.63,63.64Z"/><path class="cls-1" d="M33.6,63.6a1.69,1.69,0,0,1,.48,1.17v5.85a1.65,1.65,0,1,1-3.3,0V66.41h-4.2a1.65,1.65,0,1,1,0-3.29h5.85A1.65,1.65,0,0,1,33.6,63.6Z"/><path class="cls-1" d="M66.37,63.64A1.64,1.64,0,0,0,66.44,66l8.78,8.29a1.65,1.65,0,0,0,2.26-2.4L68.7,63.57A1.64,1.64,0,0,0,66.37,63.64Z"/><path class="cls-1" d="M66.4,63.6a1.69,1.69,0,0,0-.48,1.17v5.85a1.65,1.65,0,0,0,3.3,0V66.41h4.2a1.65,1.65,0,1,0,0-3.29H67.57A1.65,1.65,0,0,0,66.4,63.6Z"/><path class="cls-1" d="M33.63,36.36A1.64,1.64,0,0,0,33.56,34l-8.78-8.29a1.65,1.65,0,1,0-2.26,2.4l8.78,8.28A1.64,1.64,0,0,0,33.63,36.36Z"/><path class="cls-1" d="M33.6,36.4a1.69,1.69,0,0,0,.48-1.17V29.38a1.65,1.65,0,1,0-3.3,0v4.21h-4.2a1.65,1.65,0,1,0,0,3.29h5.85A1.65,1.65,0,0,0,33.6,36.4Z"/><path class="cls-1" d="M66.37,36.36A1.64,1.64,0,0,1,66.44,34l8.78-8.29a1.65,1.65,0,0,1,2.26,2.4L68.7,36.43A1.64,1.64,0,0,1,66.37,36.36Z"/><path class="cls-1" d="M66.4,36.4a1.69,1.69,0,0,1-.48-1.17V29.38a1.65,1.65,0,0,1,3.3,0v4.21h4.2a1.65,1.65,0,1,1,0,3.29H67.57A1.65,1.65,0,0,1,66.4,36.4Z"/><path class="cls-1" d="M39.24,55.71A7.72,7.72,0,0,1,47,48H53a7.72,7.72,0,0,1,7.72,7.72v3a1.65,1.65,0,0,1-1.65,1.65H40.89a1.65,1.65,0,0,1-1.65-1.65ZM47,51.29a4.42,4.42,0,0,0-4.42,4.42V57.1H57.46V55.71A4.42,4.42,0,0,0,53,51.29Z"/><path class="cls-2" d="M50,37.74a2.91,2.91,0,1,0,2.91,2.9A2.9,2.9,0,0,0,50,37.74Zm-6.2,2.9A6.2,6.2,0,1,1,50,46.85,6.2,6.2,0,0,1,43.8,40.64Z"/><path class="cls-3" d="M55.57,50.62a6.94,6.94,0,0,1,4.3-1.49h5.31a7,7,0,0,1,7,7v2.66A1.64,1.64,0,0,1,70.5,60.4h-16V57.1h14.3v-1a3.66,3.66,0,0,0-3.67-3.66H59.87a3.62,3.62,0,0,0-2.26.78Z"/><path class="cls-4" d="M62.53,40.53a2.34,2.34,0,1,0,2.33,2.33A2.33,2.33,0,0,0,62.53,40.53Zm-5.64,2.33a5.64,5.64,0,1,1,5.64,5.64A5.64,5.64,0,0,1,56.89,42.86Z"/><path class="cls-5" d="M27.86,56.09a7,7,0,0,1,7-7h5.31a6.94,6.94,0,0,1,4.3,1.49l-2,2.59a3.62,3.62,0,0,0-2.26-.78H34.82a3.66,3.66,0,0,0-3.67,3.66v1h14.3v3.3h-16a1.64,1.64,0,0,1-1.64-1.65Z"/><path class="cls-6" d="M37.47,40.52a2.34,2.34,0,1,0,2.34,2.34A2.33,2.33,0,0,0,37.47,40.52Zm-5.63,2.34a5.64,5.64,0,1,1,5.63,5.63A5.63,5.63,0,0,1,31.84,42.86Z"/><path class="cls-7" d="M33.63,63.64A1.64,1.64,0,0,1,33.56,66l-8.78,8.29a1.65,1.65,0,1,1-2.26-2.4l8.78-8.28A1.64,1.64,0,0,1,33.63,63.64Z"/><path class="cls-8" d="M33.6,63.6a1.69,1.69,0,0,1,.48,1.17v5.85a1.65,1.65,0,1,1-3.3,0V66.41h-4.2a1.65,1.65,0,1,1,0-3.29h5.85A1.65,1.65,0,0,1,33.6,63.6Z"/><path class="cls-9" d="M66.37,63.64A1.64,1.64,0,0,0,66.44,66l8.78,8.29a1.65,1.65,0,0,0,2.26-2.4L68.7,63.57A1.64,1.64,0,0,0,66.37,63.64Z"/><path class="cls-10" d="M66.4,63.6a1.69,1.69,0,0,0-.48,1.17v5.85a1.65,1.65,0,0,0,3.3,0V66.41h4.2a1.65,1.65,0,1,0,0-3.29H67.57A1.65,1.65,0,0,0,66.4,63.6Z"/><path class="cls-11" d="M33.63,36.36A1.64,1.64,0,0,0,33.56,34l-8.78-8.29a1.65,1.65,0,1,0-2.26,2.4l8.78,8.28A1.64,1.64,0,0,0,33.63,36.36Z"/><path class="cls-12" d="M33.6,36.4a1.69,1.69,0,0,0,.48-1.17V29.38a1.65,1.65,0,1,0-3.3,0v4.21h-4.2a1.65,1.65,0,1,0,0,3.29h5.85A1.65,1.65,0,0,0,33.6,36.4Z"/><path class="cls-13" d="M66.37,36.36A1.64,1.64,0,0,1,66.44,34l8.78-8.29a1.65,1.65,0,0,1,2.26,2.4L68.7,36.43A1.64,1.64,0,0,1,66.37,36.36Z"/><path class="cls-14" d="M66.4,36.4a1.69,1.69,0,0,1-.48-1.17V29.38a1.65,1.65,0,0,1,3.3,0v4.21h4.2a1.65,1.65,0,1,1,0,3.29H67.57A1.65,1.65,0,0,1,66.4,36.4Z"/><path class="cls-15" d="M39.24,55.71A7.72,7.72,0,0,1,47,48H53a7.72,7.72,0,0,1,7.72,7.72v3a1.65,1.65,0,0,1-1.65,1.65H40.89a1.65,1.65,0,0,1-1.65-1.65ZM47,51.29a4.42,4.42,0,0,0-4.42,4.42V57.1H57.46V55.71A4.42,4.42,0,0,0,53,51.29Z"/></svg>