<svg id="Layer_1" data-name="Layer 1" xmlns="http://www.w3.org/2000/svg" xmlns:xlink="http://www.w3.org/1999/xlink" viewBox="0 0 100 100"><defs><style>.cls-1{fill:url(#linear-gradient);}.cls-2{fill:url(#linear-gradient-3);}.cls-3{fill:url(#linear-gradient-4);}</style><linearGradient id="linear-gradient" x1="-3468.3" y1="1711.55" x2="14259.86" y2="-6667.43" gradientUnits="userSpaceOnUse"><stop offset="0" stop-color="#fcc280"/><stop offset="1" stop-color="#ab612e"/></linearGradient><linearGradient id="linear-gradient-3" x1="-1041.72" y1="564.34" x2="2134.26" y2="-936.75" xlink:href="#linear-gradient"/><linearGradient id="linear-gradient-4" x1="-1041.6" y1="564.6" x2="2134.39" y2="-936.49" xlink:href="#linear-gradient"/></defs><title>Security</title><path class="cls-1" d="M34.12,47.78a.62.62,0,0,0-.34-.09.68.68,0,0,0-.54.23.66.66,0,0,0-.09.47.65.65,0,0,0,.23.42L46.2,58.22a.71.71,0,0,0,.84-.1L66.72,35.87a.68.68,0,0,0,.12-.68.73.73,0,0,0-.61-.38c-.12,0-.21,0-.47.28L46.5,56.88Z"/><path class="cls-1" d="M53.5,84.37l.21-.14c5.31-3.49,10.8-7.1,15.21-11C75.12,67.63,78,62.45,78,56.85V24.34a.68.68,0,0,0-.41-.58L50.2,13.49a.56.56,0,0,0-.21,0h-.12l-.06,0L22.42,23.76a.66.66,0,0,0-.42.58V56.85c0,5.6,2.88,10.78,9.08,16.33,4.41,3.95,9.9,7.56,15.21,11.06l3.35,2.21a.65.65,0,0,0,.71,0l3.15-2.08m-4.1.39-2.31-1.52-.26-.17c-5.26-3.46-10.69-7-14.91-10.81C26,67,23.24,62.07,23.24,56.85V24.76l.15-.05L50,14.73l.08,0,26.68,10V56.85c0,5.22-2.76,10.11-8.68,15.41C63.86,76,58.43,79.61,53.17,83.07l-.49.32L50.6,84.76l-.6.4Z"/><path class="cls-2" d="M34.12,47.78a.62.62,0,0,0-.34-.09.68.68,0,0,0-.54.23.66.66,0,0,0-.09.47.65.65,0,0,0,.23.42L46.2,58.22a.71.71,0,0,0,.84-.1L66.72,35.87a.68.68,0,0,0,.12-.68.73.73,0,0,0-.61-.38c-.12,0-.21,0-.47.28L46.5,56.88Z"/><path class="cls-3" d="M53.5,84.37l.21-.14c5.31-3.49,10.8-7.1,15.21-11C75.12,67.63,78,62.45,78,56.85V24.34a.68.68,0,0,0-.41-.58L50.2,13.49a.56.56,0,0,0-.21,0h-.12l-.06,0L22.42,23.76a.66.66,0,0,0-.42.58V56.85c0,5.6,2.88,10.78,9.08,16.33,4.41,3.95,9.9,7.56,15.21,11.06l3.35,2.21a.65.65,0,0,0,.71,0l3.15-2.08m-4.1.39-2.31-1.52-.26-.17c-5.26-3.46-10.69-7-14.91-10.81C26,67,23.24,62.07,23.24,56.85V24.76l.15-.05L50,14.73l.08,0,26.68,10V56.85c0,5.22-2.76,10.11-8.68,15.41C63.86,76,58.43,79.61,53.17,83.07l-.49.32L50.6,84.76l-.6.4Z"/></svg>