<svg id="Layer_1" data-name="Layer 1" xmlns="http://www.w3.org/2000/svg" xmlns:xlink="http://www.w3.org/1999/xlink" viewBox="0 0 100 100"><defs><style>.cls-1{fill:url(#linear-gradient);}.cls-2{fill:url(#linear-gradient-2);}</style><linearGradient id="linear-gradient" x1="-3605.85" y1="1777.47" x2="14811.69" y2="-6927.33" gradientUnits="userSpaceOnUse"><stop offset="0" stop-color="#fcc280"/><stop offset="1" stop-color="#ab612e"/></linearGradient><linearGradient id="linear-gradient-2" x1="-207.73" y1="171.4" x2="2424.76" y2="-1072.82" xlink:href="#linear-gradient"/></defs><title>Vallet parking</title><path class="cls-1" d="M30.13,80.3a1.17,1.17,0,0,1-1-.62l-7-13.38a1.15,1.15,0,0,1,.49-1.56l3-1.58a1.12,1.12,0,0,1,.53-.13,1,1,0,0,1,.35,0,1.1,1.1,0,0,1,.68.57L28,65.16l6.34-3.3a3.2,3.2,0,0,1,1.56-.39h.17l9.19.4a3.62,3.62,0,0,1,2.53,1.18,3.57,3.57,0,0,1,1,2.61l0,.79.69-.28,10.13-5.28a3.54,3.54,0,0,1,1.68-.41,3.64,3.64,0,0,1,1.69,6.87L45.78,76.28a4.07,4.07,0,0,1-1.88.44,8,8,0,0,1-1.74-.23L35.35,75a3,3,0,0,0-.58-.07,1,1,0,0,0-.53.12l-.83.44.78,1.5a1.15,1.15,0,0,1-.49,1.56l-3,1.59A1.07,1.07,0,0,1,30.13,80.3ZM26,63.71l-3.2,1.67-.1.22a.53.53,0,0,0,0,.41l7,13.38a.53.53,0,0,0,.47.28h.11l.13-.06,3.21-1.67.09-.22a.55.55,0,0,0,0-.4L26.57,63.76l-.24-.09-.14,0h-.11Zm8.81,10.62a3.73,3.73,0,0,1,.73.09l6.8,1.46a7.46,7.46,0,0,0,1.62.21,3.35,3.35,0,0,0,1.58-.37l17.13-8.93a3,3,0,0,0-.49-5.54,2.91,2.91,0,0,0-.92-.15,3.06,3.06,0,0,0-1.38.34l-11.69,6.1-.06.08a3.46,3.46,0,0,1-.51.57,3.6,3.6,0,0,1-2.45,1H45l-6.19-.27a.32.32,0,0,1,0-.63l6.19.27h.13a3,3,0,0,0,2.22-5,3,3,0,0,0-2.08-1l-9.19-.39h-.14a2.61,2.61,0,0,0-1.28.32l-6.34,3.3L33.12,75l.83-.44A1.73,1.73,0,0,1,34.76,74.33Zm11.8-15.74a.31.31,0,0,1-.22-.09l-1.5-1.44a.32.32,0,0,1-.09-.23V47l-.41,0A3.76,3.76,0,0,1,41,43.19V37.33a3.75,3.75,0,0,1,3.37-3.74l.45,0,0-.45a3.89,3.89,0,0,1,1.15-3.28l5.82-5.74a.31.31,0,0,1,.18-.09l18.7-2.42-.1-.6a.3.3,0,0,1,0-.24.35.35,0,0,1,.2-.13l5.06-.9a.33.33,0,0,1,.35.25L78,30.11a.31.31,0,0,1-.06.23.28.28,0,0,1-.2.13l-5,.91a.34.34,0,0,1-.36-.26l-.14-.8-1.39.36a3.09,3.09,0,0,0-1.72,1.1l-4.39,5.29a4.25,4.25,0,0,1-2.42,1.48L52.12,40.84v2.35a3.76,3.76,0,0,1-3.35,3.74l-.4,0v9.86a.33.33,0,0,1-.1.23l-1.5,1.44A.27.27,0,0,1,46.56,58.59ZM45.37,56.7l1.19,1.14,1.18-1.14V47H45.37ZM44.25,46.32h4.56l0-.45V44.34H44.25Zm2.31-7.83a2.93,2.93,0,0,1,2.93,2.93v4.82l.72-.53a3.15,3.15,0,0,0,1.28-2.52v-2.4l-.27-.12a1.65,1.65,0,0,1-.45-.29,1.8,1.8,0,0,1-.65-1.53l0-.57A2.12,2.12,0,0,1,51,36.87l.36-.37-.08-.29a3.15,3.15,0,0,0-2.92-2H44.75a3.13,3.13,0,0,0-3.13,3.13v5.86a3.13,3.13,0,0,0,1.29,2.52l.72.53V41.42A2.93,2.93,0,0,1,46.56,38.49Zm-2.31,5.22h4.61v-2H44.25Zm2.31-4.6a2.3,2.3,0,0,0-2.09,1.35l-.3.64h4.77l-.29-.64A2.32,2.32,0,0,0,46.56,39.11Zm8.8-9.22a.31.31,0,0,1,.22.09l2.31,2.17a.3.3,0,0,1,.07.36l-.47,1a3.3,3.3,0,0,1-1.73,1.68c-.45.19-.92.35-1.34.49a6.86,6.86,0,0,0-2.83,1.47l-.16.16c-.35.34-.63.6-.65,1l0,.57a1.25,1.25,0,0,0,.43,1,1.22,1.22,0,0,0,.78.29,1.43,1.43,0,0,0,.29,0l9.89-2.23a3.56,3.56,0,0,0,2.07-1.27l4.39-5.29a3.81,3.81,0,0,1,2.06-1.31l1.43-.37-1.35-7.51L52.1,24.6l-5.74,5.67a3.25,3.25,0,0,0-.94,2.92l0,.38h3V33a.29.29,0,0,1,.11-.24l3-2.49a.36.36,0,0,1,.18-.07Zm-3.44.9-3.29,2.7.81.25a3.78,3.78,0,0,1,2.28,1.92l.21.41.41-.22a12.48,12.48,0,0,1,1.88-.75c.46-.16.88-.3,1.29-.48a2.64,2.64,0,0,0,1.41-1.36l.38-.81-2-1.92Zm19.27-9.62L72.9,30.7l4.42-.79-1.71-9.54Z"/><path class="cls-2" d="M30.13,80.3a1.17,1.17,0,0,1-1-.62l-7-13.38a1.15,1.15,0,0,1,.49-1.56l3-1.58a1.12,1.12,0,0,1,.53-.13,1,1,0,0,1,.35,0,1.1,1.1,0,0,1,.68.57L28,65.16l6.34-3.3a3.2,3.2,0,0,1,1.56-.39h.17l9.19.4a3.62,3.62,0,0,1,2.53,1.18,3.57,3.57,0,0,1,1,2.61l0,.79.69-.28,10.13-5.28a3.54,3.54,0,0,1,1.68-.41,3.64,3.64,0,0,1,1.69,6.87L45.78,76.28a4.07,4.07,0,0,1-1.88.44,8,8,0,0,1-1.74-.23L35.35,75a3,3,0,0,0-.58-.07,1,1,0,0,0-.53.12l-.83.44.78,1.5a1.15,1.15,0,0,1-.49,1.56l-3,1.59A1.07,1.07,0,0,1,30.13,80.3ZM26,63.71l-3.2,1.67-.1.22a.53.53,0,0,0,0,.41l7,13.38a.53.53,0,0,0,.47.28h.11l.13-.06,3.21-1.67.09-.22a.55.55,0,0,0,0-.4L26.57,63.76l-.24-.09-.14,0h-.11Zm8.81,10.62a3.73,3.73,0,0,1,.73.09l6.8,1.46a7.46,7.46,0,0,0,1.62.21,3.35,3.35,0,0,0,1.58-.37l17.13-8.93a3,3,0,0,0-.49-5.54,2.91,2.91,0,0,0-.92-.15,3.06,3.06,0,0,0-1.38.34l-11.69,6.1-.06.08a3.46,3.46,0,0,1-.51.57,3.6,3.6,0,0,1-2.45,1H45l-6.19-.27a.32.32,0,0,1,0-.63l6.19.27h.13a3,3,0,0,0,2.22-5,3,3,0,0,0-2.08-1l-9.19-.39h-.14a2.61,2.61,0,0,0-1.28.32l-6.34,3.3L33.12,75l.83-.44A1.73,1.73,0,0,1,34.76,74.33Zm11.8-15.74a.31.31,0,0,1-.22-.09l-1.5-1.44a.32.32,0,0,1-.09-.23V47l-.41,0A3.76,3.76,0,0,1,41,43.19V37.33a3.75,3.75,0,0,1,3.37-3.74l.45,0,0-.45a3.89,3.89,0,0,1,1.15-3.28l5.82-5.74a.31.31,0,0,1,.18-.09l18.7-2.42-.1-.6a.3.3,0,0,1,0-.24.35.35,0,0,1,.2-.13l5.06-.9a.33.33,0,0,1,.35.25L78,30.11a.31.31,0,0,1-.06.23.28.28,0,0,1-.2.13l-5,.91a.34.34,0,0,1-.36-.26l-.14-.8-1.39.36a3.09,3.09,0,0,0-1.72,1.1l-4.39,5.29a4.25,4.25,0,0,1-2.42,1.48L52.12,40.84v2.35a3.76,3.76,0,0,1-3.35,3.74l-.4,0v9.86a.33.33,0,0,1-.1.23l-1.5,1.44A.27.27,0,0,1,46.56,58.59ZM45.37,56.7l1.19,1.14,1.18-1.14V47H45.37ZM44.25,46.32h4.56l0-.45V44.34H44.25Zm2.31-7.83a2.93,2.93,0,0,1,2.93,2.93v4.82l.72-.53a3.15,3.15,0,0,0,1.28-2.52v-2.4l-.27-.12a1.65,1.65,0,0,1-.45-.29,1.8,1.8,0,0,1-.65-1.53l0-.57A2.12,2.12,0,0,1,51,36.87l.36-.37-.08-.29a3.15,3.15,0,0,0-2.92-2H44.75a3.13,3.13,0,0,0-3.13,3.13v5.86a3.13,3.13,0,0,0,1.29,2.52l.72.53V41.42A2.93,2.93,0,0,1,46.56,38.49Zm-2.31,5.22h4.61v-2H44.25Zm2.31-4.6a2.3,2.3,0,0,0-2.09,1.35l-.3.64h4.77l-.29-.64A2.32,2.32,0,0,0,46.56,39.11Zm8.8-9.22a.31.31,0,0,1,.22.09l2.31,2.17a.3.3,0,0,1,.07.36l-.47,1a3.3,3.3,0,0,1-1.73,1.68c-.45.19-.92.35-1.34.49a6.86,6.86,0,0,0-2.83,1.47l-.16.16c-.35.34-.63.6-.65,1l0,.57a1.25,1.25,0,0,0,.43,1,1.22,1.22,0,0,0,.78.29,1.43,1.43,0,0,0,.29,0l9.89-2.23a3.56,3.56,0,0,0,2.07-1.27l4.39-5.29a3.81,3.81,0,0,1,2.06-1.31l1.43-.37-1.35-7.51L52.1,24.6l-5.74,5.67a3.25,3.25,0,0,0-.94,2.92l0,.38h3V33a.29.29,0,0,1,.11-.24l3-2.49a.36.36,0,0,1,.18-.07Zm-3.44.9-3.29,2.7.81.25a3.78,3.78,0,0,1,2.28,1.92l.21.41.41-.22a12.48,12.48,0,0,1,1.88-.75c.46-.16.88-.3,1.29-.48a2.64,2.64,0,0,0,1.41-1.36l.38-.81-2-1.92Zm19.27-9.62L72.9,30.7l4.42-.79-1.71-9.54Z"/></svg>