<svg id="Layer_1" data-name="Layer 1" xmlns="http://www.w3.org/2000/svg" xmlns:xlink="http://www.w3.org/1999/xlink" viewBox="0 0 100 100"><defs><style>.cls-1{fill:url(#linear-gradient);}.cls-2{fill:url(#linear-gradient-2);}.cls-3{fill:url(#linear-gradient-3);}</style><linearGradient id="linear-gradient" x1="-266.66" y1="199.66" x2="2165.97" y2="-950.09" gradientUnits="userSpaceOnUse"><stop offset="0" stop-color="#fcc280"/><stop offset="1" stop-color="#ab612e"/></linearGradient><linearGradient id="linear-gradient-2" x1="-273.97" y1="184.18" x2="2158.66" y2="-965.57" xlink:href="#linear-gradient"/><linearGradient id="linear-gradient-3" x1="-263.16" y1="207.06" x2="2169.47" y2="-942.69" xlink:href="#linear-gradient"/></defs><title>Astro</title><path class="cls-1" d="M75.76,55a6.91,6.91,0,0,0-.43-3.52A3.57,3.57,0,0,0,74.11,50a3.59,3.59,0,0,0,1.23-1.51A6.9,6.9,0,0,0,75.76,45c-.16-4.14,2-5.84,2-5.85a.55.55,0,0,0,.18-.64l0-.12a.54.54,0,0,0-.57-.32c-.11,0-2.75.35-5.57-2.71A6.85,6.85,0,0,0,69,33.16,3.94,3.94,0,0,0,67.05,33a3.69,3.69,0,0,0-.2-1.93,6.85,6.85,0,0,0-2.19-2.79c-3-2.81-2.72-5.46-2.71-5.57a.53.53,0,0,0-.32-.57L61.51,22a.53.53,0,0,0-.62.17c-.07.09-1.59,2-5.41,2H55a6.87,6.87,0,0,0-3.52.43A3.57,3.57,0,0,0,50,25.89a3.66,3.66,0,0,0-1.51-1.23A6.86,6.86,0,0,0,45,24.24h-.46c-3.81,0-5.39-2-5.4-2a.55.55,0,0,0-.63-.17l-.12.05a.54.54,0,0,0-.32.57s.34,2.76-2.71,5.57A6.85,6.85,0,0,0,33.16,31,3.53,3.53,0,0,0,33,33a3.81,3.81,0,0,0-1.94.2,6.85,6.85,0,0,0-2.79,2.19c-2.82,3.06-5.46,2.72-5.56,2.71a.52.52,0,0,0-.58.32l-.05.12a.53.53,0,0,0,.17.62c.09.07,2.2,1.72,2,5.86a6.93,6.93,0,0,0,.43,3.52A3.57,3.57,0,0,0,25.89,50a3.59,3.59,0,0,0-1.23,1.51A6.9,6.9,0,0,0,24.24,55c.16,4.14-1.94,5.79-2,5.86a.53.53,0,0,0-.17.62l.05.13a.46.46,0,0,0,.57.32s2.74-.36,5.57,2.71A6.8,6.8,0,0,0,31,66.84,3.78,3.78,0,0,0,33,67a3.72,3.72,0,0,0,.2,1.94,6.85,6.85,0,0,0,2.19,2.79c3,2.81,2.71,5.54,2.71,5.55a.53.53,0,0,0,.32.59l.12,0a.53.53,0,0,0,.62-.17c.07-.09,1.68-2.23,5.86-2a7,7,0,0,0,3.52-.43A3.57,3.57,0,0,0,50,74.11a3.53,3.53,0,0,0,1.51,1.23,6.86,6.86,0,0,0,3.51.42h.46c3.81,0,5.39,2,5.4,2a.54.54,0,0,0,.42.21.45.45,0,0,0,.2,0l.13,0a.54.54,0,0,0,.32-.57s-.34-2.76,2.71-5.57A6.86,6.86,0,0,0,66.84,69a3.49,3.49,0,0,0,.2-1.93,3.81,3.81,0,0,0,1.94-.2,6.92,6.92,0,0,0,2.79-2.19c2.82-3.06,5.46-2.72,5.56-2.71a.53.53,0,0,0,.58-.32l0-.12a.53.53,0,0,0-.17-.62C77.7,60.82,75.59,59.16,75.76,55Zm-10,13.54a5.85,5.85,0,0,1-1.87,2.32,9.13,9.13,0,0,0-3,5.24,8.9,8.9,0,0,0-5.34-1.57H55a6.09,6.09,0,0,1-3-.32A2.26,2.26,0,0,1,50.75,73a22.94,22.94,0,0,0,15-6.21A2.26,2.26,0,0,1,65.72,68.57ZM25.43,55a6,6,0,0,1,.32-3A2.26,2.26,0,0,1,27,50.75a23,23,0,0,0,6.2,15,2.37,2.37,0,0,1-1.78,0,6.22,6.22,0,0,1-2.32-1.88,9.13,9.13,0,0,0-5.24-3A9.06,9.06,0,0,0,25.43,55Zm-1.55-15.8a9.12,9.12,0,0,0,5.23-3,5.94,5.94,0,0,1,2.33-1.88,2.28,2.28,0,0,1,1.78,0,22.89,22.89,0,0,0-6.21,15A2.32,2.32,0,0,1,25.75,48a6,6,0,0,1-.31-3A9.16,9.16,0,0,0,23.88,39.18Zm10.39-7.75a6,6,0,0,1,1.88-2.32,9.13,9.13,0,0,0,3-5.24A9.2,9.2,0,0,0,45,25.43a6.09,6.09,0,0,1,3,.32A2.26,2.26,0,0,1,49.25,27a22.94,22.94,0,0,0-15,6.21A2.29,2.29,0,0,1,34.27,31.43Zm20.71-6h.5a8.93,8.93,0,0,0,5.35-1.58,9.11,9.11,0,0,0,3,5.24,5.94,5.94,0,0,1,1.88,2.33,2.22,2.22,0,0,1,0,1.78,22.92,22.92,0,0,0-15-6.21A2.29,2.29,0,0,1,52,25.75,6,6,0,0,1,55,25.44ZM74.56,45a6,6,0,0,1-.31,3A2.23,2.23,0,0,1,73,49.25a23,23,0,0,0-6.2-15,2.34,2.34,0,0,1,1.77,0,6,6,0,0,1,2.33,1.88,9.13,9.13,0,0,0,5.24,3A9.1,9.1,0,0,0,74.56,45ZM49.87,69.38l-.35-.09a.22.22,0,0,1,.15,0h0l.15.09ZM50,71.82h-.33a1.5,1.5,0,0,0,.94-.39,1.21,1.21,0,0,0,.38-.84,1.12,1.12,0,0,0-.28-.78,1.14,1.14,0,0,0-.41-.29.64.64,0,0,0,.33-.16.51.51,0,0,0,.06-.71,1.34,1.34,0,0,0-1-.51,1.25,1.25,0,0,0-1.3,1.07,1.08,1.08,0,0,0,.8,1.14l.66.25a.37.37,0,0,1-.14.09.22.22,0,0,1-.11,0,.5.5,0,0,1-.33-.18.47.47,0,0,0-.4-.13.61.61,0,0,0-.4.19.54.54,0,0,0,0,.74,1.82,1.82,0,0,0,1,.48,21.65,21.65,0,0,1-13.61-5.23,5.43,5.43,0,0,0,.68-.39l0,0h.38l.39,0a1.62,1.62,0,0,0,.78-.37,5.12,5.12,0,0,1,1-.55,8.06,8.06,0,0,1,2-.38l.27,0a5.34,5.34,0,0,1,1.49.09c1.87.3,3.14.52,3.41.59l2,.45.23,0,2.58.58a25.59,25.59,0,0,0,3.08.41c.14,0,.76,0,1.84,0l4.46,0a2.47,2.47,0,0,0,1.65-.47,2.82,2.82,0,0,0,1.14-2.1A3,3,0,0,0,63,63.23a3.16,3.16,0,0,0,.91.38V63.5h0l0-.41.07.54a3.28,3.28,0,0,0,.46,0A1.52,1.52,0,0,0,66,62.86c.88-1.59.4-6.42.23-7.53a4.42,4.42,0,0,0-.38-1.25A6.59,6.59,0,0,1,65.43,53c0-.06,0-.16,0-.31a9.25,9.25,0,0,0-2.06-5.48,3.63,3.63,0,0,0-1.15-.86,3.29,3.29,0,0,1-1.45-1.48,1.48,1.48,0,0,1-.08-1c0-.24.07-.3.09-.31a.3.3,0,0,1,.12,0A5.45,5.45,0,0,0,62.72,43a1,1,0,0,0,.72.56c.42.07.72-.25,1-.56a1.8,1.8,0,0,1,.19-.2,3.39,3.39,0,0,1,.57-.41,5.56,5.56,0,0,0,.52-.37,1.73,1.73,0,0,0,.66-1.24.67.67,0,0,0-.37-.54.81.81,0,0,0-.22-.07,4.3,4.3,0,0,0,.62-1,3.91,3.91,0,0,0,.12-2.36,2.16,2.16,0,0,0-.25-.58,3.24,3.24,0,0,0-.11-.71l0-.18A21.78,21.78,0,0,1,50,71.82Zm0-43.65a21.72,21.72,0,0,1,15,6l-.06,0-.24-.05a2.45,2.45,0,0,0-.63-.09L64,34a2.5,2.5,0,0,0-.5-.21,3.93,3.93,0,0,0-1-.13,3.06,3.06,0,0,0-1.33.26,3.44,3.44,0,0,0-1,.62.83.83,0,0,0-.08-.22.67.67,0,0,0-.62-.38,1.86,1.86,0,0,0-1.16.66c-.11.14-.23.32-.37.54a4.35,4.35,0,0,1-.4.56l-.2.19c-.31.28-.63.57-.57,1a1,1,0,0,0,.57.72,5.51,5.51,0,0,0-.48,1.86.29.29,0,0,1,0,.12,1.56,1.56,0,0,1-.31.09,1.46,1.46,0,0,1-1-.09c-1.07-.67-1.25-1-1.45-1.4a3.66,3.66,0,0,0-.9-1.19,6.68,6.68,0,0,0-4.62-1.82h-.26a15.2,15.2,0,0,1-1.53-.5A8.63,8.63,0,0,0,45,34.12a30.52,30.52,0,0,0-4.08-.28,7.92,7.92,0,0,0-3.44.51,1.71,1.71,0,0,0-.77,1.91l.11,0,.41-.05-.51.17a3.49,3.49,0,0,0,.39.91A3.08,3.08,0,0,0,35.92,37a2.75,2.75,0,0,0-2.11,1.14,2.37,2.37,0,0,0-.47,1.58c0,.17,0,5.89,0,6.37a26.34,26.34,0,0,0,.41,3.08c.1.43.35,1.53.58,2.59l.05.22c.21.93.39,1.77.45,2s.3,1.59.6,3.48a4.81,4.81,0,0,1,.08,1.42l0,.27a8.72,8.72,0,0,1-.37,2.05,4.52,4.52,0,0,1-.57,1,1.65,1.65,0,0,0-.35.77,4.52,4.52,0,0,0,0,.52c0,.09,0,.22,0,.18l-.07.11a5.8,5.8,0,0,0-.4.71A21.73,21.73,0,0,1,28.17,50c0-.3,0-.58,0-.88L28.79,51a.6.6,0,0,0,1.05.06l.44-1,.45,1a.62.62,0,0,0,.55.31.53.53,0,0,0,.5-.37l.77-2.51a.54.54,0,0,0-.11-.47.59.59,0,0,0-1,.16l-.32,1.07-.35-.78a.61.61,0,0,0-1,0l-.35.78-.33-1.07a.59.59,0,0,0-.81-.28A21.86,21.86,0,0,1,50,28.17ZM64.77,39.55a2.09,2.09,0,0,0-.2.22,1.58,1.58,0,0,0-.28.46A5.29,5.29,0,0,1,63,41.59c-.14.06-.43.18-.67.31a4.43,4.43,0,0,1-1.46.39,1.35,1.35,0,0,0-1.31,1.29,2.5,2.5,0,0,0,.24,1.88,4.29,4.29,0,0,0,1.9,1.89,2.71,2.71,0,0,1,.82.62,8.11,8.11,0,0,1,1.76,4.82,4.45,4.45,0,0,0,.06.46,8.82,8.82,0,0,0,.45,1.32,2.89,2.89,0,0,1,.29.94c.32,2.12.45,5.81-.09,6.78-.12.2-.21.24-.81.17A25.88,25.88,0,0,1,60,59.82c-1.9-1.87-4.34-4.82-5.29-6,.26-.18.48-.34.66-.45a3.88,3.88,0,0,0,1.48,1.28c.32.18.7.36,1.18.58l1,.46a10.88,10.88,0,0,1,2.31,2l.35.42a.53.53,0,0,0,.72.09l.09-.07a.54.54,0,0,0,.12-.73A29.3,29.3,0,0,1,61,55l-.24-.48A7,7,0,0,1,60.11,53l0-.18a3.16,3.16,0,0,0-.57-1.6.8.8,0,0,0-.58-.21,5.87,5.87,0,0,0-1.66.36c-1.18.41-1.89.72-2,.79h0a13.49,13.49,0,0,0-1.64,1.12,11.38,11.38,0,0,0-1.92,1.29A12.66,12.66,0,0,0,50.22,56l-.33-.2-.38-.24c-.29-.19-.54-.36-.71-.49s-.93-.86-1.82-1.75c-.71-.71-1.52-1.55-1.73-1.8s-.32-.44-.51-.73l-.29-.45c-.06-.11-.12-.19-.17-.28a11.21,11.21,0,0,0,1.5-1.43,12.87,12.87,0,0,0,1.29-1.9A10.77,10.77,0,0,0,48.25,45a0,0,0,0,1,0,0c.06-.15.35-.82.74-1.93.23-.66.56-1.82.15-2.23a3.15,3.15,0,0,0-1.62-.58l-.16,0a6.32,6.32,0,0,1-1.55-.66l-.48-.24c-.69-.35-2.07-1.28-2.51-1.58a.53.53,0,0,0-.7.13l-.07.09a.53.53,0,0,0,.08.73l.43.34a11.21,11.21,0,0,1,2,2.32c.17.33.31.63.48,1s.38.82.57,1.15a3.82,3.82,0,0,0,1.27,1.47c-.11.18-.26.41-.45.67-1.14-.93-4.11-3.38-6-5.29a26.55,26.55,0,0,1-2.64-4.08v-.12c-.07-.49,0-.62.18-.74A6.65,6.65,0,0,1,40.9,35a30,30,0,0,1,3.91.27,7.58,7.58,0,0,1,1.51.47,16,16,0,0,0,1.65.54,2.41,2.41,0,0,0,.5,0,5.52,5.52,0,0,1,3.87,1.51,2.53,2.53,0,0,1,.65.86,4.24,4.24,0,0,0,1.86,1.86,2.55,2.55,0,0,0,1.88.25A1.37,1.37,0,0,0,58,39.49,4.43,4.43,0,0,1,58.41,38c.13-.23.26-.53.32-.67A6,6,0,0,1,60.11,36a1.82,1.82,0,0,0,.44-.26l.22-.21a2.29,2.29,0,0,1,2.38-.65,1.42,1.42,0,0,1,.3.13,1.19,1.19,0,0,0,.6.17,2.46,2.46,0,0,1,.41.07l.19,0a4.31,4.31,0,0,1,.35.3l0,.27a2.1,2.1,0,0,1,.07.4,1.34,1.34,0,0,0,.17.61,1.26,1.26,0,0,1,.13.3,2.66,2.66,0,0,1-.06,1.52A2.77,2.77,0,0,1,64.77,39.55ZM36.2,61.66a9.54,9.54,0,0,0,.46-2.43l0-.26a6.08,6.08,0,0,0-.09-1.69l0-.12c-.32-2-.52-3.15-.61-3.46s-.27-1.19-.49-2.18-.48-2.19-.59-2.62A24.46,24.46,0,0,1,34.51,46c0-.23,0-2.19,0-5.83v-.51a1.18,1.18,0,0,1,.21-.78,1.72,1.72,0,0,1,1.13-.72c.46,0,.93,0,1.86,1S39.49,41.1,40,41.7a21,21,0,0,1,2,3,9.36,9.36,0,0,1,.86,3.18c0,.51,0,.82,0,1.11s0,.27,0,.39,0,.09,0,.14c-1,.44-3.43,1.79-4.27,3.71-2.31-4.09-2.28-7-2-8.42a1.65,1.65,0,0,0,0-.21.63.63,0,0,0-.59-.56.6.6,0,0,0-.59.59c-.31,1.69-.34,5.26,2.78,10.22,0,.2-.06.69-.06,1v.26a8.65,8.65,0,0,0,0,1.38,2,2,0,0,0,1.15,1.71.47.47,0,0,1,.23.52,1.76,1.76,0,0,1-.35.5l0,0a7.36,7.36,0,0,0-1.68,1,4.89,4.89,0,0,0-1.28,1.53,7.92,7.92,0,0,1-.43.7l-.57.65a2.15,2.15,0,0,0,.07-.67c0-.12,0-.24,0-.36a2.42,2.42,0,0,1,.15-.24A5.8,5.8,0,0,0,36.2,61.66Zm5-2.53.51.75a1.65,1.65,0,0,0-.93-.35,1.58,1.58,0,0,0-.35-.92Zm2.52,1.2-.12-.08h0a3.11,3.11,0,0,1-.68-.7l-.81-1.2a.6.6,0,0,0-.08-.08.69.69,0,0,0-.13-.11l-1.13-.76A3.51,3.51,0,0,1,39.67,56a3.24,3.24,0,0,1-.13-1.74c.32-1.65,2.72-3.1,3.73-3.57.06.1.13.2.19.31l.29.46c.22.33.4.59.58.83.34.4,1.57,1.65,1.82,1.9s1.51,1.48,1.92,1.83c.22.17.48.35.81.56l.47.3.29.18c-.47,1-1.91,3.41-3.57,3.73A3.15,3.15,0,0,1,43.72,60.33Zm-.61-16c1.14,1,2.18,1.84,2.72,2.27a12.18,12.18,0,0,1-.94,1.34,9.28,9.28,0,0,1-.83.83c0-.19,0-.46,0-.83A10.52,10.52,0,0,0,43.11,44.3ZM55.46,63.8l.1,0h0Zm-3.89-7.55a8.2,8.2,0,0,1,.84-.82,10.94,10.94,0,0,1,1.33-.94C54.18,55,55,56.06,56,57.21a10.74,10.74,0,0,0-3.62-1Zm4.88-3.38c.31-.12.72-.28,1.21-.45a6.49,6.49,0,0,1,1.08-.27c.07.22.14.59.19.85l0,.16a5.66,5.66,0,0,0,.59,1.51l0,0-1-.47c-.42-.2-.79-.37-1.1-.55A3.1,3.1,0,0,1,56.45,52.87Zm-9-9a2.9,2.9,0,0,1-.77-1c-.17-.31-.34-.66-.55-1.11s-.3-.63-.47-1l0,0a6.13,6.13,0,0,0,1.52.6l.16,0,.85.16a5.72,5.72,0,0,1-.28,1.11C47.72,43.14,47.57,43.55,47.45,43.86ZM37.52,64a4.9,4.9,0,0,0,1.53-1.27,7.57,7.57,0,0,0,1-1.68l0,0a1.42,1.42,0,0,1,.6-.36.42.42,0,0,1,.42.24,2,2,0,0,0,1.71,1.15,9.71,9.71,0,0,0,1,0h.66a8.72,8.72,0,0,0,.94-.08C49.21,64.46,52.19,65,54,65a8.2,8.2,0,0,0,1.6-.15.58.58,0,0,0,.58-.56.61.61,0,0,0-.17-.42.65.65,0,0,0-.41-.19l-.21,0c-1.42.26-4.29.28-8.36-2,1.91-.85,3.26-3.29,3.7-4.27a.56.56,0,0,0,.13,0h.42l1.08,0a9.55,9.55,0,0,1,3.18.85,22.19,22.19,0,0,1,3,2c.6.5,1.5,1.25,2.53,2.27s1,1.41,1,1.86-.38.85-.72,1.14a1.19,1.19,0,0,1-.79.2.75.75,0,0,1-.15,0l-4.43,0c-1,0-1.63,0-1.75,0a23.49,23.49,0,0,1-2.89-.37c-.39-.1-1.34-.31-2.31-.52l-.3-.07-2.18-.49c-.5-.13-3.07-.54-3.58-.62a5.92,5.92,0,0,0-1.11-.12l-.58,0h-.26a9.11,9.11,0,0,0-2.44.47,6,6,0,0,0-1.22.68L37.2,65l-.26,0h-.21a1.52,1.52,0,0,0-.56.08l.62-.55C37.08,64.28,37.32,64.15,37.52,64Zm-3.24,2.74a22.93,22.93,0,0,0,15,6.22A2.32,2.32,0,0,1,48,74.25a6.15,6.15,0,0,1-3,.31h-.5a8.93,8.93,0,0,0-5.35,1.58,9.08,9.08,0,0,0-3-5.24,6,6,0,0,1-1.88-2.33A2.25,2.25,0,0,1,34.28,66.77Zm32.5-1.06a22.89,22.89,0,0,0,6.21-15A2.29,2.29,0,0,1,74.25,52a6,6,0,0,1,.31,3,9.16,9.16,0,0,0,1.56,5.84,9.12,9.12,0,0,0-5.23,3,5.94,5.94,0,0,1-2.33,1.88A2.28,2.28,0,0,1,66.78,65.71Z"/><path class="cls-2" d="M48.81,33a.53.53,0,0,0,.53-.53v-.7l.67,1a.67.67,0,0,0,.51.24.53.53,0,0,0,.53-.53V30a.57.57,0,0,0-.59-.53.52.52,0,0,0-.52.53v.69l-.68-1a.5.5,0,0,0-.43-.23h-.08a.52.52,0,0,0-.52.53v2.51A.58.58,0,0,0,48.81,33Z"/><path class="cls-3" d="M69.43,51.35H70.7a.58.58,0,0,0,.53-.58.53.53,0,0,0-.53-.53H70v-.16h.6a.58.58,0,0,0,.53-.58.53.53,0,0,0-.53-.53H70V48.9h.68a.58.58,0,0,0,.53-.58.53.53,0,0,0-.53-.53H69.43a.52.52,0,0,0-.52.53v2.51A.52.52,0,0,0,69.43,51.35Z"/></svg>