<svg id="Layer_1" data-name="Layer 1" xmlns="http://www.w3.org/2000/svg" xmlns:xlink="http://www.w3.org/1999/xlink" viewBox="0 0 100 100"><defs><style>.cls-1{fill:url(#linear-gradient);}.cls-2{fill:url(#linear-gradient-4);}.cls-3{fill:url(#linear-gradient-5);}.cls-4{fill:url(#linear-gradient-6);}</style><linearGradient id="linear-gradient" x1="-2926.38" y1="1456.75" x2="12060.69" y2="-5626.7" gradientUnits="userSpaceOnUse"><stop offset="0" stop-color="#fcc280"/><stop offset="1" stop-color="#ab612e"/></linearGradient><linearGradient id="linear-gradient-4" x1="-1707.87" y1="880.99" x2="720.62" y2="-266.8" xlink:href="#linear-gradient"/><linearGradient id="linear-gradient-5" x1="-1707.99" y1="880.73" x2="720.49" y2="-267.06" xlink:href="#linear-gradient"/><linearGradient id="linear-gradient-6" x1="-1707.93" y1="880.86" x2="720.56" y2="-266.93" xlink:href="#linear-gradient"/></defs><title>Well Ventilated</title><path class="cls-1" d="M50,76.2c-20.09,0-32.59-21.74-22.85-39,1.07,2.68,1.1,3.23,1.89,3.23a.88.88,0,0,0,.81-1.2c-2-4.88-1.71-4.57-2-4.77s-.67-.13-5.08.75a.87.87,0,0,0,.17,1.73c.12,0,0,0,2.66-.52C15.14,55.06,28.79,78,50,78A.88.88,0,0,0,50,76.2Z"/><path class="cls-1" d="M77.93,63.8c-.22-1.14-1.49-.59-3.52-.18C84.86,44.93,71.19,22.05,50,22.05a.88.88,0,0,0,0,1.75c20.09,0,32.59,21.74,22.85,39l-1.08-2.68a.87.87,0,0,0-1.62.65c1.81,4.5,1.7,5.1,2.73,4.9l4.37-.88A.86.86,0,0,0,77.93,63.8Z"/><path class="cls-1" d="M62.23,36.9c-3.53,0-10,4.64-11.17,9.77a3.58,3.58,0,0,0-2.1,0c-.17-3.91,1.91-5.61,1.91-8.89a7,7,0,1,0-14,0c0,3.53,4.64,10,9.77,11.17a3.58,3.58,0,0,0,0,2.1c-3.91.17-5.62-1.91-8.89-1.91a7,7,0,1,0,0,14c3.53,0,10-4.64,11.17-9.77a3.58,3.58,0,0,0,2.1,0c.17,3.91-1.91,5.61-1.91,8.89a7,7,0,1,0,14,0c0-3.53-4.64-10-9.77-11.17a3.58,3.58,0,0,0,0-2.1c3.91-.17,5.61,1.91,8.89,1.91a7,7,0,1,0,0-14Zm-20.6,6.72c-6.05-6.86-1.36-11.09,2.26-11.09a5.25,5.25,0,0,1,5.24,5.24c0,2.89-2.29,4.84-1.88,9.51a10.67,10.67,0,0,1-5.62-3.66Zm2,14.75c-6.86,6.05-11.09,1.36-11.09-2.26a5.25,5.25,0,0,1,5.24-5.24c2.88,0,4.84,2.29,9.51,1.88A10.73,10.73,0,0,1,43.62,58.37ZM48.25,50a1.75,1.75,0,0,1,3.5,0A1.75,1.75,0,0,1,48.25,50Zm10.12,6.38c6.05,6.86,1.36,11.09-2.26,11.09a5.25,5.25,0,0,1-5.24-5.24c0-2.89,2.29-4.84,1.88-9.51A10.67,10.67,0,0,1,58.37,56.38Zm3.86-7.25c-2.87,0-4.85-2.29-9.51-1.88a10.67,10.67,0,0,1,3.66-5.62c6.86-6.05,11.09-1.36,11.09,2.26A5.25,5.25,0,0,1,62.23,49.13Z"/><path class="cls-2" d="M50,76.2c-20.09,0-32.59-21.74-22.85-39,1.07,2.68,1.1,3.23,1.89,3.23a.88.88,0,0,0,.81-1.2c-2-4.88-1.71-4.57-2-4.77s-.67-.13-5.08.75a.87.87,0,0,0,.17,1.73c.12,0,0,0,2.66-.52C15.14,55.06,28.79,78,50,78A.88.88,0,0,0,50,76.2Z"/><path class="cls-3" d="M77.93,63.8c-.22-1.14-1.49-.59-3.52-.18C84.86,44.93,71.19,22.05,50,22.05a.88.88,0,0,0,0,1.75c20.09,0,32.59,21.74,22.85,39l-1.08-2.68a.87.87,0,0,0-1.62.65c1.81,4.5,1.7,5.1,2.73,4.9l4.37-.88A.86.86,0,0,0,77.93,63.8Z"/><path class="cls-4" d="M62.23,36.9c-3.53,0-10,4.64-11.17,9.77a3.58,3.58,0,0,0-2.1,0c-.17-3.91,1.91-5.61,1.91-8.89a7,7,0,1,0-14,0c0,3.53,4.64,10,9.77,11.17a3.58,3.58,0,0,0,0,2.1c-3.91.17-5.62-1.91-8.89-1.91a7,7,0,1,0,0,14c3.53,0,10-4.64,11.17-9.77a3.58,3.58,0,0,0,2.1,0c.17,3.91-1.91,5.61-1.91,8.89a7,7,0,1,0,14,0c0-3.53-4.64-10-9.77-11.17a3.58,3.58,0,0,0,0-2.1c3.91-.17,5.61,1.91,8.89,1.91a7,7,0,1,0,0-14Zm-20.6,6.72c-6.05-6.86-1.36-11.09,2.26-11.09a5.25,5.25,0,0,1,5.24,5.24c0,2.89-2.29,4.84-1.88,9.51a10.67,10.67,0,0,1-5.62-3.66Zm2,14.75c-6.86,6.05-11.09,1.36-11.09-2.26a5.25,5.25,0,0,1,5.24-5.24c2.88,0,4.84,2.29,9.51,1.88A10.73,10.73,0,0,1,43.62,58.37ZM48.25,50a1.75,1.75,0,0,1,3.5,0A1.75,1.75,0,0,1,48.25,50Zm10.12,6.38c6.05,6.86,1.36,11.09-2.26,11.09a5.25,5.25,0,0,1-5.24-5.24c0-2.89,2.29-4.84,1.88-9.51A10.67,10.67,0,0,1,58.37,56.38Zm3.86-7.25c-2.87,0-4.85-2.29-9.51-1.88a10.67,10.67,0,0,1,3.66-5.62c6.86-6.05,11.09-1.36,11.09,2.26A5.25,5.25,0,0,1,62.23,49.13Z"/></svg>