<svg id="Layer_1" data-name="Layer 1" xmlns="http://www.w3.org/2000/svg" xmlns:xlink="http://www.w3.org/1999/xlink" viewBox="0 0 100 100"><defs><style>.cls-1{fill:url(#linear-gradient);}.cls-2{fill:url(#linear-gradient-3);}</style><linearGradient id="linear-gradient" x1="-3543.54" y1="1748.44" x2="14551.13" y2="-6803.77" gradientUnits="userSpaceOnUse"><stop offset="0" stop-color="#fcc280"/><stop offset="1" stop-color="#ab612e"/></linearGradient><linearGradient id="linear-gradient-3" x1="-1317.13" y1="696.16" x2="1115.58" y2="-453.63" xlink:href="#linear-gradient"/></defs><title>Wide Passage</title><g id="Layer_2" data-name="Layer 2"><path class="cls-1" d="M67.32,22H32.68A10.69,10.69,0,0,0,22,32.68V67.32A10.69,10.69,0,0,0,32.68,78H67.32A10.69,10.69,0,0,0,78,67.32V32.68A10.69,10.69,0,0,0,67.32,22Zm7,45.32a7,7,0,0,1-7,7H32.68a7,7,0,0,1-6.95-7V32.68a7,7,0,0,1,7-6.95H67.32a7,7,0,0,1,7,7Z"/><path class="cls-1" d="M66.8,53.43a1.87,1.87,0,0,0-1.87,1.87v7L37.7,35.07h7a1.87,1.87,0,0,0,0-3.74H32.62a1.29,1.29,0,0,0-1.29,1.29h0V44.7a1.87,1.87,0,1,0,3.74,0v-7L62.3,64.93h-7a1.87,1.87,0,1,0,0,3.74H67.38a1.29,1.29,0,0,0,1.29-1.29h0V55.3A1.87,1.87,0,0,0,66.8,53.43Z"/><path class="cls-2" d="M67.32,22H32.68A10.69,10.69,0,0,0,22,32.68V67.32A10.69,10.69,0,0,0,32.68,78H67.32A10.69,10.69,0,0,0,78,67.32V32.68A10.69,10.69,0,0,0,67.32,22Zm7,45.32a7,7,0,0,1-7,7H32.68a7,7,0,0,1-6.95-7V32.68a7,7,0,0,1,7-6.95H67.32a7,7,0,0,1,7,7Z"/><path class="cls-2" d="M66.8,53.43a1.87,1.87,0,0,0-1.87,1.87v7L37.7,35.07h7a1.87,1.87,0,0,0,0-3.74H32.62a1.29,1.29,0,0,0-1.29,1.29h0V44.7a1.87,1.87,0,1,0,3.74,0v-7L62.3,64.93h-7a1.87,1.87,0,1,0,0,3.74H67.38a1.29,1.29,0,0,0,1.29-1.29h0V55.3A1.87,1.87,0,0,0,66.8,53.43Z"/></g></svg>